<?xml version="1.0" encoding="UTF-8"?>
<svg version="1.1" viewBox="0 0 2000 2000" width="500" height="500" xmlns="http://www.w3.org/2000/svg">
<path transform="translate(538,246)" d="m0 0h12l14 3 19 7 24 11 16 8 28 15 28 17 30 20 18 13 13 10 14 11 11 9 13 11 11 9 17 16 22 22 8-1 29-8 31-7 18-3 37-4h53l32 3 26 4 32 8 21 6 8 1 13-11 16-15 3-3h2v-2l8-7 9-9 11-9 14-12 13-10 17-13 20-14 24-16 23-14 18-10 23-12 25-12 27-10 9-2h16l8 4 6 7 7 15 6 21 6 30 5 38 3 34v33l-2 28-4 36-4 25-7 31-9 30-8 22-12 25-13 25 1 7 15 43 7 24 7 27 16 6 12 3 21 3v3l-13 8-16 4h-23l-6-1 4 5 15 11 31 19-1 3-8 2h-28l-22-3-2-1 6 10 9 10 7 6 12 7 23 8 11 3-1 3-16 4-6 1h-22l-14-3-1 8-7 27-8 21-8 17-13 22-9 13-20 26-11 13v3l19 14 10 8 10 9 18 18 12 16 6 10 1 4-7-6-22-26-7-8-12-12-11-9-13-11-7-5-4 1-20 16-18 14-18 13-6 4 1 5 12 17 14 21 8 11 2 2v3h-14l14 28 10 25 11 28 10 26 12 36 6 23 3 12 3 3 21 10 9 7 9 8 7 8 7 9-1 3-7-1h-11l-13 2-9 5h-2v2l23-1 14 2 8 4 8 7 1 5-9-1-20-5 6 8 5 8 5 12 4 15 2 19v13l-2 23-6 26-9 29-9 22-15 34 4 1 32-2 13-3 15-6 12-7 10-9 7-10 7-16 3-11v-18l-4-15-3-16v-18l2-12 5-12 6-8 8-8 11-5 8-2h18l14 4 12 7 10 9 9 11 7 12 8 20 5 17 3 18 1 15v15l-1 16-5 24-8 24-8 16-8 14-10 14-14 15-12 12-17 13-16 9-12 6-21 8-22 6-17 3-23 2h-57l-7 11-9 10-8 6-14 5-16 3-29 1h-12l-11-1-6-3h-7l-9 6-11 5-15 3-15 1-7 2-5 2-18 3h-20l-17-4-10-4h-7l-10 1-17-3-10-5-12-11-6-8h-83l-7 6-7 8-11 8-14 4h-13l-10-1-16 6-17 3h-18l-15-3-11-5-4-1-22-1-16-6-10-6-1-1h-7l-20 4h-34l-17-3-14-7-10-9-9-12-5-14-1-6v-8l3-16 7-13 9-11 8-7-2-5-13-18-16-24-12-20-13-25-11-26-10-30-7-30-2-19v-27l3-17 5-16 9-12 1-3-9 2-13 6h-3l1-5 7-6 10-5 15-3 15-2-2-4-3-1-33-1 1-4 6-8 9-10 16-12 19-10 3-1 2-6 5-30 10-40 16-55 11-33 5-11 1-5-7-1-9 2 2-6 11-17 8-12 10-13 3-3-1-4-16-8-17-10-19-12-15-11-17-12-4 1-9 8-12 9-15 14-10 10-9 11-10 13-7 9-1-3 11-16 9-12 9-10 11-11 14-11 13-10 6-4-2-4-11-13-13-16-12-17-11-18-9-16-9-21-8-24-5-17v-3l-16 2-20-1-16-3-4-2v-2l29-9 14-7 9-7 9-9 4-7 1-4-23 3h-23l-11-2-1-4 17-9 10-5 14-11 3-3h2l2-6h-7l-16 2-15-2-13-5-9-7 1-2 19-2 12-3 15-5h2l4-18 7-31 9-29 6-19 1-6-6-12-6-10-12-23-11-27-9-29-6-26-6-35-3-33-1-26v-22l1-31 2-31 4-29 6-31 8-24 6-10 5-4z" fill="#FBF9F7"/>
<path transform="translate(1284,1103)" d="m0 0h6l4 2 6 8 3 5v2l-11 1 14 28 10 25 11 28 10 26 12 36 6 23 3 12 3 3 21 10 9 7 9 8 7 8 7 9-1 3-7-1h-11l-13 2-9 5h-2v2l23-1 14 2 8 4 8 7 1 5-9-1-20-5 6 8 5 8 5 12 4 15 2 19v13l-2 23-6 26-9 29-9 22-15 34 4 1 32-2 13-3 15-6 12-7 10-9 7-10 7-16 3-11v-18l-4-15-3-16v-18l2-12 5-12 6-8 8-8 11-5 8-2h18l14 4 12 7 10 9 9 11 7 12 8 20 5 17 3 18 1 15v15l-1 16-5 24-8 24-8 16-8 14-10 14-14 15-12 12-17 13-16 9-12 6-21 8-22 6-17 3-23 2h-57l-7 11-9 10-8 6-14 5-16 3-29 1h-12l-11-1-6-3h-7l-9 6-11 5-15 3-15 1-7 2-5 2-18 3h-20l-17-4-10-4h-7l-10 1-17-3-10-5-12-11-6-8h-83l-7 6-7 8-11 8-14 4h-13l-10-1-16 6-17 3h-18l-15-3-11-5-4-1-22-1-16-6-10-6-1-1h-7l-20 4h-34l-17-3-14-7-10-9-9-12-5-14-1-6v-8l3-16 7-13 9-11 8-7-2-5-13-18-16-24-12-20-13-25-11-26-10-30-7-30-2-19v-27l3-17 5-16 9-12 1-3-9 2-13 6h-3l1-5 7-6 10-5 15-3 15-2-2-4-3-1-33-1 1-4 6-8 9-10 16-12 19-10 3-1 2-6 5-30 10-40 16-55 11-33 5-11 2-4 2 10v11l-1 3 2 11 5 8 6 5 7 3 18 3 15 2 3 1 18 2 25 6 16 3 34 6 33 2 26-2 7-1h10l-1 5-3 5-3 22 2 10 6 11 5 7 8 7v2l4 2 10 8 10 6 6 2 15-3v-2l13-9 7-6 1-2h2l2-4 7-10 2-4 2-1 7-14 2-7 1-7-2-15-2-6 11 2v-2l-7-1v-1h10l13-2 11-2 16-3 11-1 21-3 12-3 24-7 11-3h4l1-2 2-1 2 1 1-2 13-5 9-4 10-5 10-6 20-8 13-7 10-5 9-5 5-4z" fill="#FBF9F7"/>
<path transform="translate(672,1287)" d="m0 0h6l4 3 7 25 7 32 15 60 6 26 22 74 10 33 6 18 19 71 1 7-8 7-8 10-7 14-4 16v18l3 10 5 1h7l8 1 4-1 3-1 3-7h2l1-7h2l3 8h11l2 1v2l5 2 9 5v2l6 2 4 3 21 5 13 2h16l2-1 13-1 5-3 7-3 9-4h5l7 5 7 1 13-5 3-3h2v-2l3-2 4-1 5-5v2h2l1 2 2-10v-13l-2-13-3-7-4-10-5-10-7-7-2-9-3-24-2-14-4-3-5-13-4-12-5-12-10-25-4-9-4-10-3-5-3-9-12-22-6-12-12-21-10-18-5-8-4-8v-2h-2l-8-16-6-10-9-17-5-14-3-9-1-6-1-12v-31h4l4 12v3l2 1 6 14 6 10 13 19 14 15 9 9 8 5 3 1 3-9 7-20 2-7 3-11h2l1-10 2-5 2-4 4-2 1 5 6 19 3 9v3l2 1-1 2h2l5 13 8 12 7 9 11 14 9 10 7 8 12 12 7 6 5-1 17-17 9-11 7-8 10-14 10-18 7-17 8-24 1 4-2 15v2h-2v2l2 1-2 1-1 15-4 8-6 15h-2l-1 4-7 12-10 14-4 9 4 2 5 1 2 4 11 2 14-3 16-6 7-4 5-2 4-2 12-4 9 1 3 2 3 9v9l-2 13-1 6 2-1 1 3h-2l-1 6-3 7-1 7-2 2-7 17-1 5v3l-1 2h-3l-3 9v4h-2l-4 16-8 28-4 17-1 5-2 22v20l-8 5-10 8-8 9-5 10-1 4h-2l-2 10-2 11 10 14 3 3v3l2 1 3 4v2l4 2 8 5 5 1 4-2 2-9 3-6 1-3v2h5l5 5 6 3 4 4 5 3 5 4 9 4 4 1v2l24 3h12l15-1 2-1h7l1-2 8-4 5-3h2v-2h3v-2h2l1-2 3-1 4 3 1 3 7 1 6-1v-2l9-4 8-2h5l2-19-1-8 4-1-4-3-1 2v-7h-2l-2-7 3-1 5 10v2h2l4 7-1 2 1 3 7 8 6 5 10 3h6l7-1 2-4h2v-2l5-1 3 3 2 6 8 4h5l9-3 8-4 4-1 1-3 6-2v-2h2l1-4v-16l-4-13-5-10-7-5-4-4-8-5-11-5-7-2-10-1h-24l-11 3-7 6-5 3-3 6-6 5-5-1-7-8-6-4-1-3 4-13 2-11-2-2v-4l-3 1v8l4 1-3 2-3-2 1-19 4-16 2-6 1-7 5-12 6-25 4-16 7-22 3-11 4-9 2-9 9-27 2 3-2 9-4 12-2 9-2 4-1 7-2 5-3 13-4 14-2 6-8 32-2 5-3 13-3 10-3 14-1 13h1l7-28 13-49 6-25 2-5 7-26 5-16 4-14 3-6 1-5 5-11 2-1 1 3 1 21 1 30 3 24 4 14 7 6 4 1h11l17-3 13-4 3-1h3l3-2 4-4 10-6 10-8 6-4h2l1-3 5-5 6-8h2l2-4 5-4h2l2-13 6-8h1v13l-2 16-9 34-8 23-11 25-10 23 4 1 32-2 13-3 15-6 12-7 10-9 7-10 7-16 3-11v-18l-4-15-3-16v-18l2-12 5-12 6-8 8-8 11-5 8-2h18l14 4 12 7 10 9 9 11 7 12 8 20 5 17 3 18 1 15v15l-1 16-5 24-8 24-8 16-8 14-10 14-14 15-12 12-17 13-16 9-12 6-21 8-22 6-17 3-23 2h-57l-7 11-9 10-8 6-14 5-16 3-29 1h-12l-11-1-6-3h-7l-9 6-11 5-15 3-15 1-7 2-5 2-18 3h-20l-17-4-10-4h-7l-10 1-17-3-10-5-12-11-6-8h-83l-7 6-7 8-11 8-14 4h-13l-10-1-16 6-17 3h-18l-15-3-11-5-4-1-22-1-16-6-10-6-1-1h-7l-20 4h-34l-17-3-14-7-10-9-9-12-5-14-1-6v-8l3-16 7-13 9-11 8-7-2-5-13-18-16-24-12-20-13-25-11-26-8-24 1-3v2h2v-29l3-17 2-7 4-18 4-12 4-13 5-14 9-21 1-9 4-15 2-12 4-9 3-6 6-9 4-7 4-4h3v-2z" fill="#C5B2B3"/>
<path transform="translate(1370,843)" d="m0 0 5 1 14 8 20 8 6 2-1 8-7 27-8 21-8 17-13 22-9 13-20 26-11 13v3l19 14 10 8 10 9 18 18 12 16 6 10 1 4-7-6-22-26-7-8-12-12-11-9-13-11-7-5-4 1-20 16-18 14-18 13-6 4 1 5 12 17 14 21 8 11 2 2v3h-3l-6-11-3-3v-2l-10-1-14 8-10 7-7 4-26 13-21 9-13 8-20 8-6 3-9 3-29 8-9 3-20 4-17 2-11 1-20 4-14 2h-5l3 1v2l-10-1 3 9 1 16-2 3-2 8-4 8-3 5h-2l-2 5-4 7-5 6h-2l-2 4-6 5-11 8h-2v2l-8 3-8 1-7-3-12-8-10-8-5-5-1-3-3-1-6-8-2-6-2-1 1-2-2-1-1-8-1-2 3-22 5-10-17 2-26 2-22-1-24-3-24-5-22-4-16-4-18-2-16-3-15-2-7-2-6-3-8-7-4-9-1-9 1-7v-9l-2-8-7-1-9 2 2-6 11-17 8-12 10-13 3-3-1-4-16-8-17-10-19-12-11-8-3-8-5-7-2-1v-5l11-8 11-6 3-3 9-3 13-6 27-9 18-3h9l8 2 4 4-1 5-9 8-12 6-10 6-3 1v3l7-3 13-6 22-8 15-5 7-1-1 3 2 1h-4l-1 3-14 8-13 8-7 5-1 2 24-11 10-5 14-6 15-5 10-3 1-1h16l11 1 17 1 23-1 17-4 10-3h5v-2l21-7 6-3 5-1 14-8 7-15 5-19 1-6-4-2-6-7-5-5-4-6-2-7-12-5-8-5-1-1v-5l3-5 1-2 3-1 3-4 5-1 1 7 7 4 5 5 4-2 9-3 1-2 4 1 4 10 1 3-1 2 4 1h1 2l-3-7 1-4h2v-2h9l18 2 4 1-5 5-5 1v2l-9 4-6 7-5 9h-2l-2 7-4 4h-2v14l4 9 5 1-1 3-1 1 5 2-3 1-2-1v2l5 1 7 3v2h3v2l5 1 9 5 13 4 17 8 12 6 16 5 10 3 17 2v2h15l1 1 17 1 6 1 5 2 3 3-1 6-6 7-11 7-15 10-7 2h-12l-14-3-8-4-4-1v-2l-6-2-4-2v-2l-5-1-7-6-3-1-1-2h-4l1-3-6-5-3-1-2-2-5-2-5-4-9-6-14-14-3-4-7-4-20-1-5 2-4 5-3 5-9 9-7 4-2 2-3 2-2-1v2l-5 2-2 2-5 2-4 2v2l-5 4-5 5-2 3h-2v2l-4 4h-2l1 10 2 3 10 4 18 2 21-3h9l4 4h8l2 3 8 1 7 1 1 2 4-1 30 6 12 1h17l9-1 21-2 28-6 12-2 17-2 11-2 9-3 17-4 16-4 5 1 1-2 5-1 9-3h13l6 2h8v-7l6-5 9-1 11 5 6 2-2-7h-2v-9l5-5 6-5 7-1 15 6 10 5-3-5-7-6-2-3 1-5 8-7h2l4-4 11-6 10-5 14-8 10-5 3-2 4-2 11-12 7-11 3-3h2l1-4h2l2-9v-8l-7-17-10-16-5-11z" fill="#C5B2B3"/>
<path transform="translate(672,1287)" d="m0 0h6l4 3 7 25 7 32 15 60 6 26 22 74 10 33 6 18 19 71 1 7-8 7-8 10-7 14-4 16v18l3 10 5 1h7l8 1 4-1 3-1 3-7h2l1-7h2l3 8h11l2 1v2l5 2 9 5v2l6 2 4 3 21 5 13 2h16l2-1 13-1 5-3 7-3 9-4h5l7 5 7 1 13-5 3-3h2v-2l3-2 4-1 5-5v2h2l1 2 2-10v-13l-1-9 2 1 1 6v19l-3 8-5 13-4 6-5 4-7 8-11 8-14 4h-13l-10-1-16 6-17 3h-18l-15-3-11-5-4-1-22-1-16-6-10-6-1-1h-7l-20 4h-34l-17-3-14-7-10-9-9-12-5-14-1-6v-8l3-16 7-13 9-11 8-7-2-5-13-18-16-24-12-20-13-25-11-26-8-24 1-3v2h2v-29l3-17 2-7 4-18 4-12 4-13 5-14 9-21 1-9 4-15 2-12 4-9 3-6 6-9 4-7 4-4h3v-2z" fill="#C5B2B3"/>
<path transform="translate(555,282)" d="m0 0 16 1 14 4 12 5 10 6 4 4 7 4 3 1 3 3 8 6 8 5 5 5 6 4 7 6 8 7 8 6v2l5 2 5 4 5 5 2 4 3 1 6 4 4 4v2l4 2 7 8 9 10 15 20 2 3v3h2l2 4 3 3 2 5 1 3 3 11v4h2l1 9-7-1-27-11-23-9-13-3h-20l-7 2v2h2v2l6 2 15 8 5 2v2l4 1v2h2v2l4 2 7 7v5l-4 1-14-3-9-3h-17v2l6 2v2l6 1 7 3 12 6v2l5 2 6 4 8 8v4l-13 3h-8l2 1-1 2h-9l2 2v3l5 2 4 3 1 4-1 2-5-1v2l5 1 2 2-2 4-7-4-4-2 5 5 4 3-2 5-5 1-6 2-10 5-7 3-15 8-13 8-9 8-6 4-3 7h-2l-2 4h-2l-2 4-4 5-6 3 1-4h-2l-1 4-8 7h-5l-6-7-3 3-2-3h-2l-1-5h-2l-4-9-4-8-5-14-3-5-6-14-4-9v-3h-2l-4-11-2-6-3-19-2-4v-7l1-5h2l-3-19-3-9-2-17 1-7v-45h-1v-5h2v-9l1-5 4-25 1-9h2l-1-5 2-6 2-14 6-17 5-8h2l1-3z" fill="#F28E9E"/>
<path transform="translate(1384,282)" d="m0 0h8l7 3 9 5 6 10 6 15 5 23 2 12 2 13 2 17 1 9 1 30-2 26-4 30-6 28-4 14-4 16-4 9-4 11-5 11-10 21-10 16-5 5-6-1-3-4v-2l-6-1-7-6v-2h-3l1 2-5 1-2-4-4-2-5-6-3-3-3-1v-2l-4-2-9-7-8-6-9-4-9-3-6-5-11-3-3-2-2 1-1-3 6-7h2v-2l14-9 12-2h10l-1-4-20-5-10-1h-35l-3-3 1-6 15-11 13-8 11-6 2-4-12 1-17 4-7 3-6-1v-5l7-9 12-10 14-6 4-1v-2l5-3 1-4h-19l-20 5-21 6-9 4-12 6-8 3-5-1-2-2 1-6 2-2v3h2l1-4 2-4 5 2v4l3-12 6-15 6-9 6-10 2-3h2l1-4 6-7h2l2-4 6-7 6-5 27-27h2l2-4h2l2-4 4-4h2l1-3 9-7 12-10 14-10 4-3h3v-2l9-5 7-5 12-5 15-5z" fill="#F38F9F"/>
<path transform="translate(812,1288)" d="m0 0h4l4 12v3l2 1 6 14 6 10 13 19 14 15 9 9 8 5 3 1 3-9 7-20 2-7 3-11h2l1-10 2-5 2-4 4-2 1 5 6 19 3 9v3l2 1-1 2h2l5 13 8 12 7 9 11 14 9 10 7 8 12 12 7 6 5-1 17-17 9-11 7-8 10-14 10-18 7-17 8-24 1 4-2 15v2h-2v2l2 1-2 1-1 15-4 8-6 15h-2l-1 4-7 12-10 14-4 9 4 2 5 1 2 4 11 2 14-3 16-6 7-4 5-2 4-2 12-4 9 1 3 2 3 9v9l-2 13-1 6 2-1 1 3h-2l-1 6-3 7-1 7-2 2-7 17-1 5v3l-1 2h-3l-3 9v4h-2l-4 16-8 28-4 17-1 5-2 22v20l-8 5-9 7h-1v-12l4-43 4-46 3-26v-21l-3 15-3 22-4 9-2 5-5 5-6 8-10 8-12 2-17-3-8-4-11-3-10-6-6-3-9-8-8-12-3-7-5-6-5-16-3-5-6-16-1-3h-3l1 10 3 13 3 21 4 26 6 57 2 14v8h-1l-4-27-4-3-5-13-4-12-5-12-10-25-4-9-4-10-3-5-3-9-12-22-6-12-12-21-10-18-5-8-4-8v-2h-2l-8-16-6-10-9-17-5-14-3-9-1-6-1-12z" fill="#C5B2B3"/>
<path transform="translate(1513,1398)" d="m0 0h18l14 4 12 7 10 9 9 11 7 12 8 20 5 17 3 18v14l-3 12-4 9-3 10-9 16-2 3h-2l-2 4-2 3h-2l-2 4-2 3h-2l-2 4-4 2v2l-6 5-5 5-8 6-14 10-9 6-18 11-19 9-7 3-11 5-18 5-6 1h-10l-8-4-6-9-2-16-2-20-2-7-2-8v-6l1-2h-12v-1l19-1 13-3 15-6 12-7 10-9 7-10 7-16 3-11v-18l-4-15-3-16v-18l2-12 5-12 6-8 8-8 11-5z" fill="#FBF9F7"/>
<path transform="translate(773,711)" d="m0 0h19l16 2 13 5 15 8 12 9 7 6 9 11 7 10 4 8 12 30 4 17 3 16 1 9v13h-21l-9 2h-5v2l-9 3-21 10-4 2-21 3h-23l-19-4-12-5-7-3v-2l-4-1-10-9-5-5v-2h-2l-4-6v-4h-2v-3h-2l-2-4-3-19-1-11v-16l1-18-5-1-43-1v-2l14-7h3v-2l5-3h4v-2l11-6 5-2v-2h3v-2l8-4 7-4h2l1-3 11-4 25-7z" fill="#32283E"/>
<path transform="translate(1154,711)" d="m0 0h27l19 3 21 10 6 2v2l9 2 6 3v3l5 2 6 2 3 3 20 11 7 3 5 5-3 1-39 2 1 8 1 6v24l-2 16-4 10h-2v2h-2l-1 7-4 4h-2l-2 5-4 6-9 9-8 7-16 5-16 3-8 1h-13l-17-2-12-3v-2l-9-3-21-10-7-2-26-1v-12l1-11 2-9 3-19 5-19 8-19 9-16 9-10 5-5 9-8 15-9 8-3 10-3z" fill="#32283E"/>
<path transform="translate(1384,282)" d="m0 0h8l7 3 9 5 6 10 6 15 5 23 2 12 2 13 2 17 1 9 1 30-2 26-4 30-6 28-4 14-4 16-4 9-4 11-5 11-10 21-10 16-5 5-6-1-3-4v-2l-6-1-7-6v-2h-3l1 2-5 1-2-4-4-2-5-6-3-3-3-1v-2l-4-2-9-7-8-6-9-4-9-3-6-5-11-3-3-2-2 1-1-3 6-7h2v-2l14-9 12-2h10l-1-4-20-5-10-1h-35l-3-3 1-6 15-11 13-8 11-6 2-4-12 1-17 4-7 3-6-1v-5l7-9 12-10 14-6 4-1v-2l5-3 1-4h-19l-20 5-21 6-9 4-12 6-8 3-5-1-2-2 1-6 2-2v3h2l1-4 2-4 5 2v4l3-12 6-15 6-9 6-10 2-3h2l1-4 6-7h2l2-4 6-7 6-5 27-27h2l2-4h2l2-4 4-4h2l1-3 9-7 12-10 14-10 4-3h3v-2l9-5 7-5 12-5 15-5zm-3 9-17 4-12 5-21 13-12 9-10 7v2l-4 1-5 5-2 1v2l-4 2-5 6-5 5-4 3v2l-4 2-12 12-5 3-7 8-4 3v2l-4 2-8 7-14 19-9 15-5 12-3 9v3l3 1 13-4 3-3 10-4v-2l17-4 11-3 7-1h19l12 3 4 2v3l-9 4-15 6-20 9-9 8-2 4 3 1 17-5 21-3h12l15 5 8 4-2 2h-22l-16 4-16 7-14 10v2l-5 2v3l5 1h21l25 2 11 2v2l14 5 7 6 6 3 1 2-9-1-7-2h-21l-9 2-6 2v2l-6 2-7 5v3l10 4 13 5 5 3 18 10 18 12 10 8 10 9 4 1 6-5v-3l3-1 8-15 6-11 6-10 5-13 8-20 6-21 5-23 3-17 2-25v-38l-2-12-1-3v-7h-4l-1 2-2 16-1 7-6 7-4 2-2 5h-2v2l-6 1-3 2v2h-19l-9 3-15-1-11 1-17-2h-12l-5-3h-5l4 3-5-1-5-3-7-2h-10l-7 5-10-4 1-10h2l7-11 7-7v-2l4-2 4-3v-3l4-2v-2l4-2v-2h2v-2l4-2 4-4 4-3 10-6v-2h2v-2h3l5-5 15-10 10-6 6-2 12-5 13-4h17l6 5h2v2l6 1h2l-3-10-5-9-5-6-5-4z" fill="#FAA5AF"/>
<path transform="translate(924,1470)" d="m0 0h3l4 8 5 14 2 2 5 16 6 7 4 9 7 10 10 8 12 6 8 3 10 4 12 3 10 1 11-3 3-3h2l1-3 5-5 6-8h2l1-5 4-9 5-34 2-4h1v22l-5 46-5 61-2 21-8 9-5 10-1 4h-2l-2 10-3 9-1 16 1 11 2 9h2v5h2l2 4v3l-5 1h-66l-11-1 2-5 4-11 3-8v-19l-2-7-5-15-8-16-7-7-2-9-1-19-5-40-4-38-5-30-2-14-2-9z" fill="#907A84"/>
<path transform="translate(1348,1610)" d="m0 0 6 1 5 13 4 4 8 16 8 11 5 5 2 7 4 2v2h2l4 4 3 1v2l15 5 12 1h15l23-3 8-1 5-2h3v-2l8-1 11-5 11-3 7-4h2l1-2 4-2h3l1-2 4-3h2l2 5-12 10-15 10-16 8-19 8-20 6-25 5-23 2h-57l-7 11-9 10-8 6-14 5-16 3-29 1h-12l-11-1-6-3h-7l-9 6-11 5-15 3-15 1-7 2-5 2-18 3h-20l-17-4-10-4h-7l-10 1-17-3-10-5-12-11-7-9-2-7h-2v-5h-2l-3-9-1-19 1-8 4 5 8 11 3 3v3l2 1 3 4v2l4 2 8 5 5 1 4-2 2-9 3-6 1-3v2h5l5 5 6 3 4 4 5 3 5 4 9 4 4 1v2l24 3h12l15-1 2-1h7l1-2 8-4 5-3h2v-2h3v-2h2l1-2 3-1 4 3 1 3 7 1 6-1v-2l9-4 8-2h5l2-19-1-8 4-1-4-3-1 2v-7h-2l-2-7 3-1 5 10v2h2l4 7-1 2 1 3 7 8 6 5 10 3h6l7-1 2-4h2v-2l5-1 3 3 2 6 8 4h5l9-3 8-4 4-1 1-3 6-2v-2h2l1-4v-16l-4-13-5-10-7-5-3-5-10-7-1-2 1-2 9-5 3-1v-3l10-7z" fill="#C4B1B2"/>
<path transform="translate(545,421)" d="m0 0 7 6v2h2l1 6h5l5 5 11-1 2-1 15-2 5-1 12 3v2l4 1v2l5 2 3 3 8 2 20 2h9l3 2 9 3 10 3 1 2 7 3-3 2-6-1-6-2-9-1-13-3-12 1-5 3-9 3-9 5h-2l-2 6v3l8 1 9-3h11l12 3 15 3 15 7 5 3v2l5 2 1 3-12 4h-9l-5 2-9 1-20 6-11 2v3l-9 5-4 1v3l13-3h16l19 3 16 6 6 4v4l-28 13-19 10-14 10-13 10-12 10h-5l-9-10-2-5h-2l-13-20-13-25-7-19-4-16-2-21-3-25-1-21 2-10 3-2 2 1z" fill="#EC7A8E"/>
<path transform="translate(1222,1087)" d="m0 0h4l-2 4-17 17-11 7-14 9-10 5-15 5-9 4-9 3-11 4-21 6-6 1-2-1-1 2-20 3-14 3-12 2-10 1h-6l-1 2-2 1-7-1-7 3-7 1-9-1-3 1-2 6-4 8h-2l-2 4-7 7-3 2h-7l1-2 5-2 9-8 5-7 1-3h2l2-8v-13l-4-7-6-4h-8l-8 5-6 7-1 2v17l-3-2-3-11-1 4-1 7-9 2-11-1-9-2-22-2-9-3-10-2-10-4-2-1v-2l-3-1-2-2-21-5-6-2-10-5-10-4-10-5-14-6-14-9-4-4v-2l-4-2-9-6-11-6-5-5 7 1 28 10 27 8 26 6 27 5 14 2h166l23-1 27-4 23-4 11-2 28-6 7-2h8v-2l14-2 18-6z" fill="#5B606F"/>
<path transform="translate(555,282)" d="m0 0 16 1 14 4 12 5 10 6 4 4 7 4 3 1 3 3 8 6 8 5 5 5 6 4 7 6 8 7 8 6v2l5 2 5 4 5 5 2 4 3 1 6 4 4 4v2l4 2 7 8 9 10 15 20 2 3v3h2l2 4 3 3 2 5 1 3 3 11v4h2l1 9-7-1-27-11-23-9-13-3h-20l-7 2v2h2v2l6 2 15 8 5 2v2l4 1v2h2v2l4 2 7 7v5l-4 1-14-3-9-3h-17v2l6 2v2l6 1 7 3 12 6v2l5 2 6 4 8 8v4l-13 3h-8l2 1-1 2h-9l2 2v3l5 2 4 3 1 4-1 2-5-1v2l5 1 2 2-2 4-7-4-4-2 5 5 4 3-2 5-5 1-6 2-10 5-7 3-15 8-13 8-9 8-6 4-3 7h-2l-2 4h-2l-2 4-4 5-6 3 1-4h-2l-1 4-8 7h-5l-6-7-3 3-2-3h-2l-1-5h-2l-4-9-4-8-5-14-3-5-6-14-4-9v-3h-2l-4-11-2-6-3-19-2-4v-7l1-5h2l-3-19-3-9-2-17 1-7v-45h-1v-5h2v-9l1-5 4-25 1-9h2l-1-5 2-6 2-14 6-17 5-8h2l1-3zm11 11-7 4-8 7-5 11-6 26-4 30-1 11v49l3 30 6 40 5 19 6 16 14 27 12 18h2l2 5 9 10h5l14-12 12-9 15-10 27-14 18-8v-4l-6-4-16-6-21-3h-14l-13 3v-3l4-1 9-5v-3l14-3 17-5 9-1 32-1 3-1-1-5-10-7-14-8-14-5-25-5-17-1 2-4 7-3 16-3 22 2 16 3 7 2h6l-3-5-8-7-8-4-19-8-14-4-1-5 14-4 8-1h16l21 5 19 8 18 8 10 4h2l-1-7-8-15-15-22-9-12-13-16-7-8-9-8-12-12-8-6-1-2h-3l-1-3-20-15-7-6-5-3-10-8-11-7-5-3-9-5-12-6-9-2z" fill="#EEB9BE"/>
<path transform="translate(758,1645)" d="m0 0 3 3-3 7-6 12-4 16v18l3 10 5 1h7l8 1 4-1 3-1 3-7h2l1-7h2l3 8h11l2 1v2l5 2 9 5v2l6 2 4 3 21 5 13 2h16l2-1 13-1 5-3 7-3 9-4h5l7 5 7 1 13-5 3-3h2v-2l3-2 4-1 5-5v2h2l1 2 2-10v-13l-1-9 2 1 1 6v19l-3 8-5 13-4 6-5 4-7 8-11 8-14 4h-13l-10-1-16 6-17 3h-18l-15-3-11-5-4-1-22-1-16-6-10-6-1-1h-7l-20 4h-34l-17-3-6-3 2-5 2-4 6-5 4-4 4-3 6 2 1 1h8l5-2 2-4 8-10 6-15 3-7 3-10 2-6h2v-3h2l1-5 6-10h3z" fill="#C4B1B2"/>
<path transform="translate(594,880)" d="m0 0 10 1 7 4 8 5 11 10 14 9 3 4-1 3 5 2 7 4 10 8 14 12 4 2v3l5 2 18 12v5l-9 6-19 9-11 6-9 5-13 6-12 6-5 1-1-1-2 7-5-4-8-10 1-2 7 6 4-1-3-9-2-1-2-8-5-12-6-10-4-7-2-6-3-7-7-19-3-13v-26z" fill="#C5B2B3"/>
<path transform="translate(1061,1513)" d="m0 0h1v10l-4 58-5 56-8 9-5 10-1 4h-2l-2 10-3 9-1 16 1 11 2 9h2v5h2l2 4v3l-5 1h-66l-11-1 2-5 4-11 3-8v-19l-2-7-8-24 2-1 3 6 8 6v2l7-1 6-3 10-2 1-2 9-3 4-2v-2l5-2v-2l7-6 12-17 3-5h2l2-6 4-11 5-17 3-12 3-10 4-27 3-17z" fill="#5C606F"/>
<path transform="translate(752,1091)" d="m0 0 7 1 28 10 27 8 26 6 27 5 14 2h166l23-1 27-4 23-4 11-2 28-6 7-2h8v-2l13-1-3 2-29 8-8 1v2l-10 3-30 6-35 4-57 4-26 1h-22l-27-1-42-3-33-4-30-6-17-4h-2l17 5 35 8 7 2h5v2l14 1 22 4 15 2 9 1 1 1 9 2 5 2 5 6 3 15v5l-2-3-2-8-1 4-1 7-9 2-11-1-9-2-22-2-9-3-10-2-10-4-2-1v-2l-3-1-2-2-21-5-6-2-10-5-10-4-10-5-14-6-14-9-4-4v-2l-4-2-9-6-11-6z" fill="#5A7A87"/>
<path transform="translate(984,1141)" d="m0 0h6l6 5 3 6v13l-3 8h-2l-1 5-7 8-8 7-4 1h6l10-9 2-3 19 1 5 3 3 3v2l3 1 4 13v8l-3 11-7 11-11 11-5 6-13 10-9 3-2-3-11-3v-2l-5-2-1-3-4-2-5-6-7-5-3-5-5-5-5-8-3-16 2-10 7-9 8-4 16-1 8-1 13 1 4-1 7-11 2-5v-7l-7-8 3-1 3 2-2-4-6-2v2l-6-2 1-2z" fill="#8BC2CB"/>
<path transform="translate(1384,282)" d="m0 0h8l7 3 9 5 6 10 6 15 5 23 2 12 2 13 2 17 1 9 1 30-2 26-4 30-6 28-4 14-4 16-4 9-4 11-5 11-10 21-10 16-5 5-6-1-3-4v-2l-6-1-7-6v-2h-3l1 2-5 1-2-4-4-2-5-6-3-3-3-1v-2l-4-2-9-7-8-6-9-4-9-3-6-5-11-3-3-2-2 1-1-3 6-7h2v-2l14-9 12-2h10l-1-4-20-5-10-1h-35l-3-3 1-6 15-11 13-8 11-6 2-4-12 1-17 4-7 3-6-1v-5l7-9 12-10 14-6 4-1v-2l5-3 1-4h-19l-20 5-21 6-3 2-4-1h3l1-3 9-4h3v-2l13-4 15-4 7-1h19l12 3 5 3 1 3-8 4-16 6-22 10-8 7-2 4 12-3 13-3 15-2h12l15 5 8 4v3l-5 1h-19l-16 4-16 7-13 9-4 4h-2v3h26l25 2 11 3v2l9 2 8 4 4 4 6 3 2 3-5 1-12-3h-21l-9 2-1 1h-5v2l-11 6-2 4 4 1 12 4 8 4 13 7 9 5 18 12 10 8 9 8 1 3 5 1 4-2 2-4 4-6h2v-3h2l1-4 3-5h2l1-5 6-12 11-23 3-7 3-9 2-7 3-8 2-7 3-9 1-4 3-10v-9l3-20v-36l-2-36-2-12-2-16-2-5-2-10-3-12-3-6-4-13-4-3-10-5h-9l-7 1-8 3h-4v2l-11 4-20 12-13 10-15 11-1 2h-3l-1 3-8 7-9 9h-2l-2 4h-2l-2 4-8 7-8 8-8 7-4 5h-2l-2 4-6 6h-2v-2h2l2-4 6-7 6-5 27-27h2l2-4h2l2-4 4-4h2l1-3 9-7 12-10 14-10 4-3h3v-2l9-5 7-5 12-5 15-5z" fill="#C5B2B3"/>
<path transform="translate(1348,1610)" d="m0 0 6 1 5 13 4 4 8 16 8 11 5 5 2 7 4 2v2h2l4 4 3 1v2l15 5 12 1h15l23-3 8-1 5-2h3v-2l8-1 11-5 11-3 7-4h2l1-2 4-2h3l1-2 4-3h2l2 5-12 10-15 10-16 8-19 8-20 6-25 5-23 2h-52l-4-1 2-12v-18l-1-9h-2l-5-12-3-6-7-5-3-5-10-7-1-2 1-2 9-5 3-1v-3l10-7z" fill="#A2878E"/>
<path transform="translate(969,956)" d="m0 0 20 1 9 6 9 10 8 8 10 6 5 2 2 2 2 1v2l4 1 6 5-1 3 2 1 1-2 2 6 2 4h2l6 10-1 4-7 2-10 1-16-2-27-6-21-6-26-7-10 2-8 4-14 3-3-2v-11l2-4-2-2 3-1v-2l7-5 4-2 5-1v-2l5-2 9-6 4-4 4-6 3-3 6-7z" fill="#FBF9F7"/>
<path transform="translate(725,1480)" d="m0 0h2l3 5 3 9 12 38 11 35 11 41v3h2l3 11 1 12-8 6-2-7-2-3-25-5-34-1-3-2v-6l6-26 1-14 3-8 8-36 2-7 4-10 3-8-1-11-2-15z" fill="#A2878E"/>
<path transform="translate(1404,492)" d="m0 0h4l1 4-5 18-7 19-9 20-4 10-9 16-4 7h-2l-1 4-5 4-5-2-12-11-10-7-15-10-9-5-13-7-10-5v-2l-10-3-2-3 6-4 6-1 1-2 7-2 16-1 17 1 7 3 10 1 1-1v-6l9-2 1-2 8-1 3-1 4 1 5-3h2v-2l5-3 4-4h3l2-5 5-8z" fill="#EC7A8E"/>
<path transform="translate(924,1470)" d="m0 0h3l4 8 5 14 2 2 5 16 6 7 4 9 7 10 10 8 12 6 8 3 10 4 12 3 10 1 11-3 3-3h2l1-3 5-5 6-8h2l1-5 4-9 5-34 2-4h1v22l-4 37h-1v-12l1-15-1 7h-2l-1 9-3 12-4 10-3 4-3 9-5 9h-2v3l-7 5-4 4-9 5-7 2-2 1-16 1-15-5-12-6-9-14-5-8-7-20-2-4-2-7-2-11-4-24-3-12-1-1 3 27 2 15v10h-1l-4-26-4-25-2-9z" fill="#A2878E"/>
<path transform="translate(984,935)" d="m0 0 3 2 2-1 2 2-1 2-1 1 5 2-3 1-2-1v2l5 1 7 3v2h3v2l5 1 9 5 13 4 17 8 12 6 16 5 10 3 17 2v2h15l1 1 17 1 6 1 5 2 3 3-1 6-6 7-11 7-15 10-7 2h-12l-14-3-8-4-4-1v-2l-6-2-4-2v-2l-5-1-7-6-3-1-1-2h-4l1-3-6-5-3-1-2-2-5-2-5-4-9-6-14-14 1-2 8 7 5 3 3 3 5 3 11 3-6-3-8-5-10-6v-2l-4-1v-2l-4-2-7-7-8-16z" fill="#C4B1B2"/>
<path transform="translate(721,770)" d="m0 0 4 1v4l4 1 4 5v2l4 1 2 3 2 19 5 12 8 11 5 4 5 5 12 6 6 2h25l9-3 13-8 10-9 4-2 1 4 3 1 1 8-1 5 1 7v3l-10 8-18 9-11 3-22 1-17-3-16-8-11-8-5-4v-2h-2l-10-13-6-12-4-12-1-7v-11l2-12z" fill="#8CC1CA"/>
<path transform="translate(1104,793)" d="m0 0 2 1 2 14 7 14 9 12 6 6 8 4 10 3h23l13-4 6-3h2v-2h3v-2l6-4 6-7 3-8h2l2-9 4-15 4 5v2l3 1 4 5v2h2l4 4-3 9-8 16-11 14-5 5-7 6-9 5-9 4-11 2h-23l-15-3-12-7-12-11-7-7-10-16-4-10-2-9-1-15 5-1 7 1 2 1 4-1z" fill="#8DC1CA"/>
<path transform="translate(773,711)" d="m0 0h19l16 2 13 5 15 8 12 9 7 6 9 11 7 10 4 8 12 30 4 17 3 16 1 9v13h-21l-9 2h-5v2h-4v-2l-7 1 4-6 2-6 6-11 6-14 4-17-1-19-2-9-2-6-2-2h-2v-2h-2v-2l2-2-4-5-1-2-4-1-1-5-3-4h-3v-4l-5-2-4-5-4-2-2 1-2-4-8-4-3-1-1 2-18-3-1 1-10 1-13 1-15 2-12 3-8-1-2-1v2l-16 4-4-1 2-4 6-3h2v-2h4l2-3h2v-2l25-7z" fill="#291F34"/>
<path transform="translate(555,282)" d="m0 0 16 1 14 4 12 5 10 6 4 4 7 4 3 1 3 3 8 6 8 5 5 5 6 4 7 6 3 4-4-2-17-13-11-8-9-6-8-6-11-6-14-7-17-5h-11l-5 2-5 6-2 4-5 15-7 30-2 15-2 28v41l2 11 1 19-2 6 1 8 2 13 2 3 2 7 3 5v8h2l4 15 1 9v6l2 3 2 9 3 5 2 9 3 7 5 9 7 10 8 10v2h6l4-1v-2l9-2 1-4 11-9 13-10 15-10 27-14 9-4 3 1-4 3-13 5-10 6-11 6-9 6-8 7-6 4-3 7h-2l-2 4h-2l-2 4-4 5-6 3 1-4h-2l-1 4-8 7h-5l-6-7-3 3-2-3h-2l-1-5h-2l-4-9-4-8-5-14-3-5-6-14-4-9v-3h-2l-4-11-2-6-3-19-2-4v-7l1-5h2l-3-19-3-9-2-17 1-7v-45h-1v-5h2v-9l1-5 4-25 1-9h2l-1-5 2-6 2-14 6-17 5-8h2l1-3z" fill="#C5B2B3"/>
<path transform="translate(672,873)" d="m0 0h13l5 4 1 3 4 2 5 3 10 3 11 8v2l4 1v2h2v2l6 2 3 5-1 5-5 3-7 2-11 1-21 1-19-2-9-3-7-4-6-5-4-8v-9l2-7 6-5 6-3z" fill="#C5B2B3"/>
<path transform="translate(667,433)" d="m0 0h16l21 5 19 8 18 8 12 5 1-6h2l1 9-7-1-27-11-23-9-13-3h-20l-7 2v2h2v2l6 2 15 8 5 2v2l4 1v2h2v2l4 2 7 7v5l-4 1-14-3-9-3h-17v2l6 2v2l6 1 7 3 12 6v2l5 2 6 4 8 8v4l-13 3h-8l2 1-1 2h-9l2 2v3l5 2 4 3 1 4-1 2-5-1v2l5 1 2 2-2 4-7-4-4-2 5 5 4 3-2 5-5 1-4 1-1-2 6-3-2-4-11-5-14-4-16-2h-14l-7 2h-6v-3l11-6h2v-3l4-2 10-2 17-5 9-1 35-1-1-4-10-7-14-8-14-5-25-5-17-1-1-2 3-4 7-3 16-3 22 2 16 3 7 2h5l-7-8-11-6-19-8-14-4-2-2 1-5 14-4z" fill="#F1B7BC"/>
<path transform="translate(737,751)" d="m0 0 4 1 6 2 2 2-1 5-4 10-2 9-1 13 3 17 4 9-1 2-6-12-2-9-1-13-2-3-3-1-5-7-3-1-1-4-3-1-1 6-3 9-1 8v11l2 11 6 15 9 13 3 3v2h2l5 5 12 9 15 7 17 3 22-1 16-5 15-9 6-5h2l-2-13 1-4-1-6-5-4 9-18 3-13 1-10h6l6 2v-2l3 1 2 5 1 14-4 17-7 16-5 9-2 6-2 5h4l-1 3-16 8-13 6-21 3h-23l-19-4-12-5-7-3v-2l-4-1-10-9-5-5v-2h-2l-4-6v-4h-2v-3h-2l-2-4v-6h2l2 4v-3l-3-9v-25l2-11 5-13 9-11 2-2z" fill="#312A3F"/>
<path transform="translate(1181,1101)" d="m0 0h6l-3 2-29 8-8 1v2l-10 3-30 6-35 4-57 4-26 1h-22l-27-1-42-3-33-4-30-6-17-4h-2l17 5 35 8 7 2h5v2l14 1 22 4 15 2 9 1 1 1 9 2 5 2 5 6 3 15v5l-2-3-2-8-3 4h-6l-3-3v-6l-4-2-3-3-13-2-9-3-21-4-10-2-8-2-8-1-2-1v-2l-8-1-8-2-27-6-10-4-5-3v-2l-6-1-17-7 1-2 7 1 26 7 38 8 21 3h166l23-1 27-4 23-4 11-2 28-6 7-2h8v-2z" fill="#5B606F"/>
<path transform="translate(1269,434)" d="m0 0h19l12 3 5 3 1 3-8 4-16 6-22 10-8 7-2 4 12-3 13-3 15-2h12l15 5 8 4v3l-5 1h-19l-16 4-16 7-13 9-4 4h-2v3h26l25 2 11 3v2l9 2 8 4 4 4 6 3 2 3-5 1-12-3h-21l-9 2-1 1h-5v2l-11 6-2 4 4 1 12 4 8 4 13 7 9 5 18 12 10 8 1 2-4-2v1l3 3 2 5-5 1-2-4-4-2-5-6-3-3-3-1v-2l-4-2-9-7-8-6-9-4-9-3-6-5-11-3-3-2-2 1-1-3 6-7h2v-2l14-9 12-2h10l-1-4-20-5-10-1h-35l-3-3 1-6 15-11 13-8 11-6 2-4-12 1-17 4-7 3-6-1v-5l7-9 12-10 14-6 4-1v-2l5-3 1-4h-19l-20 5-21 6-3 2-4-1h3l1-3 9-4h3v-2l13-4 15-4z" fill="#DFB7BA"/>
<path transform="translate(1164,1109)" d="m0 0 3 1-3 3-11 3-13 5-13 3-18 3-12 3-14 3-42 6-17 3-13 4-4 4h-2v2l-3 1-2 2-6-10-6-4h-8l-8 5-6 7-1 2v17l-2-1-4-21-4-4v-2l-14-3-3-1-18-2-5-1-28-5-7-1-5-1-37-9-20-5-4-3 9 1 31 7 25 4 30 3 31 2 27 1h22l42-2 50-4 26-3 20-4 17-4 13-3z" fill="#32283E"/>
<path transform="translate(947,858)" d="m0 0h2l1 7 7 4 5 5 4-2 9-3 1-2 4 1 4 10 1 3-1 2 4 1h1 2l-3-7 1-4h2v-2h9l18 2 4 1-5 5-5 1v2l-9 4-6 7-5 9h-2l-2 7-4 4h-2v14l4 12 8 16 8 8 2 1v2l4 1v2l5 2 12 7 5 3 3 3-12-3-8-5-2-3-7-4-15-14-3-1h-19l-4 2 2-6 5-11 5-19 1-6-4-2-6-7-5-5-4-6-2-7-12-5-8-5-1-1v-5l3-5 1-2 3-1 3-4z" fill="#F1909F"/>
<path transform="translate(1430,362)" d="m0 0h2l4 18 2 13 3 12 4 10v5h2v3h-2v10l1 3-7 15-2 12-1 2v12l-1 10-1 2-4 32-2 13-4 7-2 8-6 13-4 10h-2l-2 9-14 20-8 7-7 4-1-3 7-14 4-7 5-10 2-7 7-17 4-8 4-12 3-8 3-14 3-9 7-34 3-24 1-10h2v-15l1-13-1-16-3-25z" fill="#E2D8D3"/>
<path transform="translate(1073,1299)" d="m0 0 3 1 2 9 1 4v5l2 1 1 7 1 2 1 8 5 13 6 6 3 1h7l9-4 5-4 7-10 4-9 1-3h2l3-9 3-1-1 8-6 15-8 16-4 4-2 4-5 5-6 7-3 1-4 4-7 6-2 4h-2l-2 6h4l6-3 14-1 8-3 7 1 4 4 2 11-1 12-4 14-4 10-1 3h-2l-1-3 5-14 1-2v-16l-1-9-10-1-15 5-20 7-13 2-10 2-6-2 4-2 9-1 5-4 1-8 2-1v5l4 1-1 5h6l-2-2 1-6 5-7-6 5-3-1-1-6 2-17 1-13 1-2h-2v-7h1v-16l-2-19z" fill="#C5B2B3"/>
<path transform="translate(758,1645)" d="m0 0 3 3-3 7-3 5-3 3-5 16-1 7v10l2 11 5 13 7 11 5 7-26 5h-34l-17-3-6-3 2-5 2-4 6-5 4-4 4-3 6 2 1 1h8l5-2 2-4 8-10 6-15 3-7 3-10 2-6h2v-3h2l1-5 6-10h3z" fill="#917A84"/>
<path transform="translate(851,681)" d="m0 0 10 2 5-1 5 3 6 5 6 2v2l4 2 8 10 3 5v6l3 5 3 3 3 9v9l3 5 2 6-1 9 2 4v37l-2 9-3 3h-2l-3-9-6-23-5-11-3-7 1-7 3 4 3 5 4 1 1-4v-9l-2-10-3-9h-2l-6-19-4-5-1-5-5-2-8-5-5-2h-11l2 7 3 3 5 2 3 10-3 1-2-3-5-3-5-4v-2l-5-2-11-11-4-6-1-4 7-3z" fill="#E1D6D1"/>
<path transform="translate(1110,749)" d="m0 0 1 3-3 5 4 1 3-3 2 1-6 13-3 12-1 22h-1l-1-9-6 3-4-1-6-2-1 2-1 3 2 16 3 9 6 12 7 11v3l1 5-1 3 3 1v2l-3 1-12-5-4-1-26-1v-12l1-11 2 2 1-5 1-9h2l1-11 3-9 3-4 2-6 5 1 2-3 3-10 6-11 10-13z" fill="#332A3F"/>
<path transform="translate(1382,286)" d="m0 0h10l9 5 5 4 5 16 3 7 3 10 2 11 2 8 3 27 2 36v33l-3 21-1 9-2 7-1 4-3 9-2 7-3 8-2 7-4 10-2 6-9 19-2 6h-2l-2 8-3 4-1 3h-2l-2 5-2 4h-2v3h-2l-2 5-4 5-4 3-5-1v-3l4 1 5-4 1-3 4-4 6-12 6-11 6-10 5-13 8-20 6-21 5-23 1-5h2l2-19 2-27v-22l-2-28-2-18-6-27-1-7h-2l-5-12-4-6-8-8-11-1-17 4-12 5-21 13-20 15h-2v2l-4 1-1 3-4 3h-2v2l-5 5h-2l-2 4h-2l-2 4-3 3h-2v2l-8 7-8 8-4 2-3 4h-2l-2 4-12 11-3 3h-2l-2 4-13 18-7 12-5 12-4 12 6-1 7-1-5 4-5 2-12 5-5-1-2-2 1-6 2-2v3h2l1-4 2-4 5 2v4l3-12 6-15 6-9 6-10 2-3h2l2-4 14-13 1-2h2l2-4 4-4h2l2-4 8-7 6-5 6-7 8-7 16-16h3l2-4 11-8 19-14 12-7 12-6h4v-2l11-3 1-1z" fill="#F0B8BD"/>
<path transform="translate(1104,793)" d="m0 0 2 1 2 14 7 14 9 12 6 6 8 4 12 4 8 1-2 9-4 9h-3v3l-2 1h-8l-9-3-13-9-14-14-10-16-4-10-2-9-1-15 5-1 7 1 2 1 4-1z" fill="#8DC2CB"/>
<path transform="translate(1154,711)" d="m0 0h27l13 2 1 4 6 1 1 3 4 1v2l3-1v3l2 1v2l-4 2h-3v-2h-2v-2l-5-1-16-3-7 1-4-2-6 2-11 1-16 4-8 3-6 4-10 9-8 8-3 6-8 11-6 13-2 6-1 14h-1l-1-12-4 1-3 7-3 5-3 16h-2v12l-3 3 1-12 3-19 5-19 8-19 9-16 9-10 5-5 9-8 15-9 8-3 10-3z" fill="#291F34"/>
<path transform="translate(1334,1641)" d="m0 0 7 2 5 5 5 8 6 15 5 2 5 3 8 4 5 3 10 4 9 4 11 3 5 1 13 1h12l10-1 10-2h15l-1 2-20 6-25 5-23 2h-52l-4-1 2-12v-18l-1-9h-2l-5-12-3-6-5-4z" fill="#927B85"/>
<path transform="translate(696,1629)" d="m0 0 6 1v6l-2 4-7 16-4 9-4 13-2 1-4 7-8 8-5 2-5 4-2 5h-2v3h-2l-1 2-4-12-1-6v-8l3-16 7-13 9-11 10-8 14-6z" fill="#FBF9F7"/>
<path transform="translate(927,1369)" d="m0 0 7 5 6 8 11 14 9 10 7 8 12 12 7 6 5-1 17-17 9-11 7-8 7-5-2 6-8 10-8 11v3l2-1-1 5h-2l-2 4-6 8h-2l-2 4h-2l-2 4-7 6-9 1-4-3v-2h-3v-2l-4-2-5-5-5-4-7-9-5-5-5-8-5-13-5-8v-2h-2l-2-10-2-4z" fill="#A38990"/>
<path transform="translate(553,633)" d="m0 0 4 2 5 5 2 4 1 1 6 1 1 8-4 16-6 19-3 7-3 17-2 14-6 21-2 6-6 11h-2v2l-10 4-7 1-10 2-3 3-13-5-9-7 1-2 19-2 12-3 15-5h2l4-18 7-31 9-29 6-19 1-6-6-12z" fill="#EBE8E6"/>
<path transform="translate(972,848)" d="m0 0 22 1 12 1 6 3 5 4 6 8 1 3v7l-6 5-6 1 2-2 6-3 1-2-12-1-16-1-2-1v2l-2 1 2 10h-2v2l-2-1-3-2-1-5-4-10-3-1-2 4-9 3h-4l-4-3v-2l-5-2-3-2-1-5 1-2-6 3-2 3h-3l-2 6-3 4-1-7 3-6 3-1 2-4 6-4 11-3z" fill="#F9A7B0"/>
<path transform="translate(1028,1689)" d="m0 0h1l3 17 2 9h2v5h2l2 4v3l-5 1h-66l-11-1 2-5 4-11 3-8 2-12h1v10l2 6 4 4 18-5 16-1 9-3 5-5z" fill="#342A3F"/>
<path transform="translate(1212,1099)" d="m0 0 3 1-8 8-11 7-14 9-10 5-15 5-9 4-9 3-11 4-21 6-6 1-2-1-1 2-20 3-14 3-12 2-10 1h-6l-1 2-2 1-7-1-7 3-7 1-9-1-3 1-1 3-1-2 3-10 10-4 11-3 20-3 4-1 11-2 17-3 22-2 13-3v3l-5 4-8 3 19-2v-2l27-9 17-7 23-8 7-5h2v-3l5-3 4-1 7-5 4-2z" fill="#5A7B88"/>
<path transform="translate(1245,1716)" d="m0 0 2 1 2 6 4 1 8 4 8 2h11l5-2 9 1v2l7 1 14-1 16-2-5 5-11 5-20 4-29 1h-12l-11-1-6-3h-7l-9 6-11 5-15 3h-18l3-3 9-5 5-3 6-1 7 1 12-2 10-5h2l2-4 5-6z" fill="#917B85"/>
<path transform="translate(914 1e3)" d="m0 0h2v13l3 1 15-4 9-4 8-1 25 7 21 6 27 6 17 2 16-2-1-6-4-6v-2h-2l-4-5v-2l4 2 8 7 5 5 7 5v2l4 2 2 4-6 3-20 2h-24l-16-4-13-4-16-5-21-7-7-2-9 1-11 5-5 1h-13l-4-3-1-9 3-7z" fill="#E1D6D1"/>
<path transform="translate(595,838)" d="m0 0h4l2 3-1 6-11 23-7 8-15 8-12 1-4-4-5-17v-4l13-4 9-5h2v-2l12-7 7-4z" fill="#C5B2B3"/>
<path transform="translate(1203,749)" d="m0 0h6l9 4 1 3 4 1 9 11 5 10 3 11v19l-6 18-8 15-7 7-7 8-7 6-11 6-8 3-3-1 13-6 9-6 5-4 13-17 8-16 3-9-3-2v-2h-2l-5-7-6-6-3 13-2 3 2-14v-15l-3-9-6-12-4-10z" fill="#5A7885"/>
<path transform="translate(814,1113)" d="m0 0 9 1 31 7 25 4 30 3 31 2 52 2h26l-3 2-24 3-5 3-8 2-6 4-6 7-1 2v17l-2-1-4-21-4-4v-2l-14-3-3-1-18-2-5-1-28-5-7-1-5-1-37-9-20-5z" fill="#32283E"/>
<path transform="translate(1405,1428)" d="m0 0 4 1-4 9-3 7-7 11-7 8-4 6h-2v2h-2v2l-11 7-16 8-5 2-16 3-4 1-14 1h-7l3-2 14-5 8-2-24 1-7-5-5-8-2-8-1-17 2 4 2 12 3 9 2 4h2l2 3h13l10-4 11-5 7-1 9-1 8-1 9-3 4-2 1-3 11-9 10-17z" fill="#E1D6D1"/>
<path transform="translate(923,1200)" d="m0 0 1 4 1 12 2 10 5 9 3 9 2 5 5 5h5l7 6 5 5 5 4 6 3 10-1 17-11 13-12 11-14 3-3-1 4-4 7h-2l-2 5-4 7-5 6h-2l-2 4-6 5-11 8h-2v2l-8 3-8 1-7-3-12-8-10-8-5-5-1-3-3-1-6-8-2-6-2-1 1-2-2-1-1-8-1-2 3-22z" fill="#C5B2B3"/>
<path transform="translate(943,1181)" d="m0 0h5l-12 6-6 8-2 10 3 16 7 11 5 5v2l4 2 8 7 6 7 4 2v2l11 2 2 4 12-6 8-7h2l2-4h2l2-4 9-9 7-11 3-11v-8l-4-13v-3l5 8 1 5h2l1 16-2 3-2 8-8 10-9 11-7 7-12 9-10 6-10 1-9-5-7-6v-2l-4-2-3-3-7-1-5-6-3-12-6-10-3-19 2-11 7-9 8-5z" fill="#57727F"/>
<path transform="translate(1181,1101)" d="m0 0h6l-3 2-29 8-8 1v2l-10 3-30 6-35 4-36 1-18 1h-23l-24-1h-48l-33-2-9-1v-1l17-1h149l23-1 27-4 23-4 11-2 28-6 7-2h8v-2z" fill="#99818A"/>
<path transform="translate(711,401)" d="m0 0 5 1v2l4 2v2h2l11 15 7 8 9 15 4 8v5l-10-3-9-4-10-4-5-5-8-4-4-3v-2l-3-1v-5h2l1-4 1-2h2l2-13-2-3z" fill="#EC7B8F"/>
<path transform="translate(758,1645)" d="m0 0 3 3-3 7-3 5-3 3-5 16-1 7v17l-3-1-2 5-4 9h-2l-1 4-5 6-6 4h-8l-9-2-6 4-2 3h-5v2l-3 3-7-2v-3l3-7 6-5 4-4 4-3 6 2 1 1h8l5-2 2-4 8-10 6-15 3-7 3-10 2-6h2v-3h2l1-5 6-10h3z" fill="#A2878E"/>
<path transform="translate(655,511)" d="m0 0h35l2 1-1 2h-9l2 2v3l5 2 4 3 1 4-1 2-5-1v2l5 1 2 2-2 4-7-4-4-2 5 5 4 3-2 5-5 1-4 1-1-2 6-3-2-4-11-5-14-4-16-2h-14l-7 2h-6v-3l11-6h2v-3l4-2 12-2z" fill="#E3D9D4"/>
<path transform="translate(854,784)" d="m0 0h6l6 2v-2l3 1 2 5 1 14-4 17-7 16-7 10-7 8-13 9-8 4-3-1 12-7 5-3 6-5h2l-2-13 1-4-1-6-5-4 9-18 3-13z" fill="#5A7986"/>
<path transform="translate(874,809)" d="m0 0 5 1 4 8 3 12v5h2l3 6 2 2 2-1v13h-21l-9 2h-5v2h-4v-2l-7 1 4-6 2-6 6-11 6-14 3-11 2 2z" fill="#32283E"/>
<path transform="translate(992,1182)" d="m0 0 19 1 5 3 3 3v2l3 1v8l-3 1-3 3-8 4-9 1-3 2h-21l-6-4-3-8v-6l4-1 2 2h8l10-9z" fill="#E8E5E3"/>
<path transform="translate(936,614)" d="m0 0 7 1 5 4 4 4 3-1 5 2 1 5 2 3 1 5h2l-1-5-2-6-2-10h2l4 10 2 6 1 11h6l-2 1-1 7 6 1 4 2 7 1v-2l5-2 12-1 5 1h9l3-3 8-2 5-4 5-2 7-2 8-4 3-1h12l5 1 1-2h-5l2-2 7-1 5 1 2 2 4-2 3 1h-2v2l-8 2-14 2-8 1-10 3-9 4-2-1-2 4-13 6-6 2-2 1-13 1-12-1-2 2h-15l-8-7-5-5-5-3-3-6-5-4 1-2-4 1v-8l-6 1-3 1-4-4-9-3-1-2 6-1v-2z" fill="#EAE7E5"/>
<path transform="translate(1282,469)" d="m0 0h17l2 4-9 4-12 4-10 6-7 4-12 9-5 5v3h20l27 1 22 6 8 5-1 3-15 1-14 2-5 1-1 3-9 6-3 6 4 1 12 4 8 4 13 7 9 5 18 12 10 8 1 2-4-2v1l3 3 2 5-5 1-2-4-4-2-5-6-3-3-3-1v-2l-4-2-9-7-8-6-9-4-9-3-6-5-11-3-3-2-2 1-1-3 6-7h2v-2l14-9 12-2h10l-1-4-20-5-10-1h-35l-3-3 1-6 15-11 13-8 11-6 2-4-12 1-13 3-4-1 8-3z" fill="#E2D8D3"/>
<path transform="translate(1383,874)" d="m0 0 3 3 3 7 1 10-4 10-2 3h-2l-2 5-4 5-10 10-5 4-14 7h-5v2l-10 5-11 3-1 3-13 5-10 4-4 2-1 5-5 3-1 2-2-1 3-4v-3l-5 4v6l-4-4 2-7 4-5 7-5 10-5 10-3 3-2 7-2 5-5 9-2 4-4 8-1 14-8 11-9 6-7 6-8 1-4v-9z" fill="#E1D6D1"/>
<path transform="translate(724,822)" d="m0 0 6 1 2 4 5 2 7 4 4 2 3 1v2l5 2 3 3 6 2 14 7 2 4v9l-2 4h-6l-10-4-8-4-10-7-12-12-7-10-3-9z" fill="#EAE7E5"/>
<path transform="translate(980,1140)" d="m0 0h8l-4 2-4 1 5 3-1-3 5 1 4 4v2h-4l1 3 4 2 1 2v7l-6 12-4 5-6 1-11-1h-3l-2-5v-5l1-4v-12l4-6 5-5z" fill="#A2878E"/>
<path transform="translate(1127,842)" d="m0 0 5 1 4 2h6l8 3 8 1-2 9-4 9h-3v3l-2 1h-8l-9-3-13-9-12-12 1-2h2l1-2h13z" fill="#E7E5E3"/>
<path transform="translate(689,1143)" d="m0 0h1v9l-3 24-2 5-2 2 2 1-2 7-2-2-3 7h-2l1 2 4-1v3l-3 10-6 16h-2l1 7-2 10-6 17-3 10-4 12-4 4h-1l1-11 7-31 13-47 11-36z" fill="#EAE7E5"/>
<path transform="translate(616,1354)" d="m0 0h8l1 5-9 15-2 4h-2l-2 5-3 5h-2l-1 6-3 5v4h-2l-1 6-3 8-1 4v15h-2l1 4-2 3-1-3v-27l3-17 5-16 9-12 1-3-9 2-13 6h-3l1-5 7-6 10-5z" fill="#EAE7E5"/>
<path transform="translate(1224,729)" d="m0 0 13 5 8 4 8 2 3 3 20 11 7 3 5 5-3 1h-41v9l2 9h-3l-4-10-2-2v-3l-2-1-1-6 1-2h8l-2-6v-4l-5-1-2-4-6-5-3-1-3-6z" fill="#271D32"/>
<path transform="translate(1352,296)" d="m0 0m-1 1m-3 1h3l1 3-21 13-20 15h-2v2l-4 1-1 3-4 3h-2v2l-5 5h-2l-2 4h-2l-2 4-3 3h-2v2l-8 7-8 8-4 2-3 4h-2l-2 4-12 11-3 3h-2l-2 4-13 18-7 12-5 12-4 12 6-1 7-1-5 4-5 2-12 5-5-1-2-2 1-6 2-2v3h2l1-4 2-4 5 2v4l3-12 6-15 6-9 6-10 2-3h2l2-4 14-13 1-2h2l2-4 4-4h2l2-4 8-7 6-5 6-7 8-7 16-16h3l2-4 11-8 19-14 12-7z" fill="#F0B8BD"/>
<path transform="translate(1178,741)" d="m0 0h9l6 3 5 4v2h2l2 4v9l-4 6-6 5-7 1-10-4-2-4h-2l-3-5v-12l5-6z" fill="#F5F1F0"/>
<path transform="translate(757,1578)" d="m0 0h2l8 30v3h2l3 11v11l-4-2-9-4-11-4-5-4-1-7 2-2-1-4 5-8 3-6 3-12z" fill="#927B85"/>
<path transform="translate(833,1139)" d="m0 0 6 1 28 8 18 4 8 2 14 2 13 2 12 1 16 3 3 1 6-1 1 5-1 3-9 2-11-1-9-2-22-2-9-3-10-2-10-4-2-1v-2l-3-1-2-2-21-5-6-2-10-5z" fill="#A2878E"/>
<path transform="translate(1090,1387)" d="m0 0 2 1-1 2h-2l-2 6h4l6-3 14-1 8-3 7 1 4 4 2 11-1 12-4 14-4 10-1 3h-2l-1-3 5-14 1-2v-16l-1-9-10-1-15 5-20 7-13 2-10 2-6-2 4-2 9-1 5-4 1-8 2-1v5l4 1-1 5h6l-2-2 1-6 9-11z" fill="#E1D6D1"/>
<path transform="translate(1266,1436)" d="m0 0 2 3-2 9-4 12-2 9-2 4-1 7-2 5-3 13-4 14-2 6-8 32-2 5-3 13-3 10-3 14-1 13v6l-3-2v-4l-3 1v8l4 1-3 2-3-2 1-19 4-16 2-6 1-7 5-12 6-25 4-16 7-22 3-11 4-9 2-9 7-21z" fill="#E1D6D1"/>
<path transform="translate(667,437)" d="m0 0h20l13 3 18 7 2 4-7-1-4-1-4 1-1-2 1-1-6-3v2l-9-3-1 2-2-1v5l4 1 5 3 1 2h12l6 1v3h2l1 4-2 2h-8v5l-3 1-3-3-5-3-3-2v-2h-2v-2l-4-1v-2l-6-2-17-8-3-2v-2h-2v-2z" fill="#E3D9D5"/>
<path transform="translate(824,741)" d="m0 0h7l8 5 5 5v11l-7 8-5 2h-7l-8-5-4-8v-8l4-6z" fill="#F8F5F3"/>
<path transform="translate(671,435)" d="m0 0h11l13 2 17 6 1 2-5-1-15-5-6-1h-20l-7 2v2h2v2l6 2 15 8 5 2v2l4 1v2h2v2l4 2 7 7v5l-4 1-14-3-9-3h-17v2l6 2v2l6 1 7 3 12 6v2l5 2 6 4 8 8v4l-13 3h-25l-18 1-11 2 1-2 8-2 10-1 29-1 15-1v-3l-11-9-14-9-16-6-19-5-9-2 1-4 2-1h26l13 2 23 6-2-5-12-11-15-8-14-6-8-4v-3l9-3z" fill="#C5B2B3"/>
<path transform="translate(1110,749)" d="m0 0 1 3-3 5 4 1 3-3 2 1-6 13-3 12-1 22h-1l-1-9-6 3-4-1-6-2-1 2-2-1v-7l3-10 6-11 10-13z" fill="#5A7986"/>
<path transform="translate(737,751)" d="m0 0 4 1 6 2 2 2-1 5-4 10-2 9-1 13 3 17 4 9-1 2-6-12-2-9-1-13-2-3-3-1-5-7-3-1-1-4-3-1-1 6-3 9-1 8v11l2 11 3 8-1 3-5-14-1-7v-15l2-11 5-13 9-11 2-2z" fill="#5A7683"/>
<path transform="translate(973,910)" d="m0 0 7 2 3 1-1 3v11l4 12 8 16 8 8 2 1v2l4 1v2l5 2 12 7 5 3 3 3-12-3-8-5-2-3-7-4-15-14-3-1h-19l-4 2 2-6 5-11 5-19v-6z" fill="#2B2136"/>
<path transform="translate(976,874)" d="m0 0 2 2 5 16 3 8h4l1 2-4 8-4 3-7-1h-1l-1 2-8-9-5-5-4-6-2-7-5-4v-2l2-1h8l1 13h3l1-2h3v-7l5-4 1-3h2z" fill="#E97C8F"/>
<path transform="translate(1278,430)" d="m0 0h14l16 8 3 2-1 6-9 4-14 3-5 3-7 2-7 3-3 3h-3v2l8 1 12-2 14-1 10 1 10 3 12 5 3 3v4l-3 1h-32l-13 4-3-1 15-5 6-1h22l2-2-8-4-15-5h-12l-26 4-12 4-3-1 4-6 9-7 27-12 14-5 2-2-3-3-9-3-5-1h-19l-14 3-8 1 3-2 13-4 1-1 11-1z" fill="#FBA6B0"/>
<path transform="translate(1212,1099)" d="m0 0 3 1-8 8-11 7-14 9-10 5-15 5-9 4-9 3-11 4-21 6-6 1-2-1-1 2-20 3-14 3-12 2-10 1h-6l-1 2-2 1-7-1-7 3-7 1-9-1-3 1-1 3-1-2 2-4 2-1 36-4 28-4 25-5 17-4 7-1v-2l27-9 17-7 23-8 7-5h2v-3l5-3 4-1 7-5 4-2z" fill="#998089"/>
<path transform="translate(1104,847)" d="m0 0 4 2 10 10 14 9 10 3 7 1h23l17-3 9-4 8-5 7-2-2 4-5 7-7 3-16 4-15 2h-13l-17-2-12-3v-2l-9-3-11-6 2-1-3-3-1-8z" fill="#2F273C"/>
<path transform="translate(1087,1741)" d="m0 0 5 1 9 7 25 5 2 1 13 1h13v5l-4 1h-20l-17-4-10-4h-7l-10 1-17-3v-3l-6-1v-4h18z" fill="#A58A91"/>
<path transform="translate(723,724)" d="m0 0 2 1-3 3-10 6-5 1v2h-3v2l-12 7-4 1v2l-9 3v2l-14 7h-3v2h43l6 2-1 18v16l2 17 1 13-2-2-3-10-1-11v-36h-2v-2l-7 1-13-1 7 2v2l-9-2-8-2-3-1v-2h-13l-6-2 1-2 21-8 11-7 16-11 9-5 7-4z" fill="#B2A0A4"/>
<path transform="translate(1288,477)" d="m0 0 4 1-12 5-4 4-10 5-10 7-4 4h-2v3h26l25 2 11 3v2l9 2 8 4 4 4 6 3 2 3-5 1-12-3h-21l-9 2-1 1h-5v2l-9 5-2-1 8-6 3-3 9-3 23-2h2v-2l-10-5-19-5-29-1h-18l-1-4 5-5 10-8 7-5 12-6z" fill="#F0B8BD"/>
<path transform="translate(1245,1716)" d="m0 0 2 1 2 6 4 1 8 4 8 2h11l5-2 9 1v2l7 1 14-1 16-2-5 5-11 5-9-1h-15v-2h-9l-8 1-20-2-1-2-8-3-3-7v-3z" fill="#A2878E"/>
<path transform="translate(1382,279)" d="m0 0h10l9 3 6 4 6 7 6 13 4 11 4 14 4 10 3 6 2 9 1 5 2 1h-2l3 7 3 13 2 4-1 4-4-10-2-9-5-8-2-8h-2l-4-15-1-3-6-25-7-16-3-4v-2l-5-2-7-4-4-1h-8l-7 2-18 6-10 5-7 5-6 1 2-4 13-7 15-7 11-4z" fill="#E8DFDB"/>
<path transform="translate(1424,340)" d="m0 0h2l3 12h2l4 13 4 6 3 13 2 3v3h2l1 7 2 7-1 1 2 4 2 5v7h-3l-4-1-4-14-3-8-2-10-1-8-3-13v-5h-2l3 19 2 23v10l-1 7-1 14h-1v-17l-1-34-2-10-2-20z" fill="#E9E5E3"/>
<path transform="translate(812,1110)" d="m0 0 20 4 28 6 21 3v2l30 1 12 1h56l16 1h23l18-1h23v1l-44 3-26 1h-22l-27-1-42-3-33-4-30-6-21-5z" fill="#796E7A"/>
<path transform="translate(1221,655)" d="m0 0h7l4 1 2 3 6 3 5 4 7 1 1 1v5h7l6 5 7 5 6 3 5 3 4 2 3 8h2l6 9 3 7 1 4-1 5-3 9-4 1-2 5-3 5-3 1 7-14 1-15-6-15h-3l-7-8-5-5-13-7-11-7-6-5-7-5-6-3-4-3-6-2z" fill="#EAE7E5"/>
<path transform="translate(1430,754)" d="m0 0 9 2 15 4 21 3v3l-13 8-16 4h-23l-6-1 4 5 2 1 1 4 3 1 2 4h-3l-6-4-6-5-2-3v-8l5-2 7 1 10 1 21-2 9-2v-3l-15-2-13-5-6-3z" fill="#EBE8E6"/>
<path transform="translate(630,1309)" d="m0 0v3l-5 3v4l-5 10 2 14-1 1h-11l-3 2h-14l1-4 6-8 9-10 16-12z" fill="#EAE7E5"/>
<path transform="translate(972,848)" d="m0 0 22 1 12 1 6 3 5 4 6 8 1 3v7l-6 5-6 1 2-2 6-3 2-2-2-8h-2v-2l-3 1v-2h-2l-3-3-5-3h-7l-5 1-4-2h-16l-2-1h-9l-4-1-13 2-7 4 2-4 6-4 11-3z" fill="#E6BEC0"/>
<path transform="translate(1282,771)" d="m0 0h1l-1 7-1 5h-2l1 3-1 1v10l1 5-5 13-5 3-4 5-4 2-4 6-3 1-1-6 4-16-1-14-2-1-3 1 2-9h2v2h2v3l2 1 1 14 2 5-1 4h-2l1 2 3-3v-3l3-2 4-7-2-1 1-1 2-12 3-6 3-3z" fill="#EAE7E5"/>
<path transform="translate(715,812)" d="m0 0 2 4 3 10h2l7 12 7 8v2h2l5 5 12 9 15 7-3 1-9-4-3 1v2l-4-1-7-3v-2l-4-1-10-9-5-5v-2h-2l-4-6v-4h-2v-3h-2l-2-4v-6h2l2 4v-3l-3-9z" fill="#3D374B"/>
<path transform="translate(1286,528)" d="m0 0 2 1-10 7-3 6 4 1 12 4 8 4 13 7 9 5 18 12 10 8 1 2-4-2v1l3 3 2 5-5 1-2-4-4-2-5-6-3-3-3-1v-2l-4-2-9-7-8-6-9-4-9-3-6-5-11-3-3-3 2-5z" fill="#E2B3B7"/>
<path transform="translate(751,1722)" d="m0 0 4 2 9 12 1 2-26 5h-34l-3-2 12-3h9l13-2 3-2h3v-2l6-5z" fill="#5F6271"/>
<path transform="translate(1037,1288)" d="m0 0 5 1 5 3h6l2-4h6l1 10-6-2-7-1h-15l-1 3-7 2-1 2-21 5-15 1h-10l-1-2 4-2-7-4v-1l7 1 5 1 20-1 21-7h5z" fill="#EAE7E5"/>
<path transform="translate(1354,1692)" d="m0 0 5 2v2l9 2 16 3 5 1 7 2 17 1v2l-7 1h-52l-4-1 2-12h2z" fill="#616372"/>
<path transform="translate(636,466)" d="m0 0h6l-1 3-2 1-1 3 14 2 20 6 11 5 10 6 13 10 3 4-2 2-15 1-35 1 2-2 9-1 35-1-1-4-10-7-14-8-14-5-25-5-17-1-1-2 3-4 7-3z" fill="#F1B6BB"/>
<path transform="translate(984,1141)" d="m0 0h6l6 5 3 6v13l-3 8h-2l-1 5-7 8-8 7-7-1-5-5-1-6 9-1 7 1 4-1 7-11 2-5v-7l-7-8 3-1 3 2-2-4-6-2v2l-6-2 1-2z" fill="#F6F3F1"/>
<path transform="translate(974,1143)" d="m0 0 9 6 9 7 1 4-3 3-2 4-2-3-3-1-2-2h-2v2l-7 1-5 2v12l-2 2-2-4v-5l1-4v-12l4-6 5-5z" fill="#917A84"/>
<path transform="translate(1203,749)" d="m0 0h6l9 4 1 3 4 1 9 11 5 10 3 11v19l-2 3v-21l-3-9-3-6v-2h-3v-2l-5-2-6-2-3 1-1 7-3-4-5-10-4-10z" fill="#5B606F"/>
<path transform="translate(639,514)" d="m0 0 4 1-4 2-4 1-4 4h12l15 2 12 2 10 4 6 5 5 5-2 5-5 1-4 1-1-2 6-3-2-4-11-5-14-4-16-2h-14l-7 2h-6v-3l11-6h2v-3l4-2z" fill="#EFBABE"/>
<path transform="translate(1196,1156)" d="m0 0 3 2-30 13-33 11-12 3-13 4-17 3-5 1-31 4-11 1-3-1 1-2 4 1v-2l23-3 18-2 36-8 29-8 22-9 4-2 8-3z" fill="#E1D6D1"/>
<path transform="translate(1397,806)" d="m0 0 10 1 5 2 4 2 9 2v3l-17-2-2-1 6 10 9 10 7 6-1 3-9-6-1-2-3-1v-2h-2v-2h-2l-4-4-4-2v-2l-5-1-7-6v-2l-4 1-1-3 9-3z" fill="#EAE7E5"/>
<path transform="translate(1095,1288)" d="m0 0 4 1 3 2 6 2 7 2-1 5-2 1-7-3v7h2l-1 4h3l1-4h3l6 5-1 3h-2v2l-4 2-5-1-4-4h-5v-2h-2v-3l-3-3-1-12 3-1z" fill="#EAE7E5"/>
<path transform="translate(1218,793)" d="m0 0 4 5v2l3 1 4 5v2h2l4 4-3 9-8 16-4 4 2-6 3-7-3-3-4-6-3-8-1-3z" fill="#C5B2B3"/>
<path transform="translate(998,856)" d="m0 0h7l7 4 1 3 5 1v2h2l3 5v3h-8l-15-2h-7l-2-1v2l-2 1 2 10h-2v2l-2-1-3-2-1-5-3-9 7-1h9l11 1 1-4-6-1-8-4 1-3z" fill="#FBA6B0"/>
<path transform="translate(838,627)" d="m0 0h2l1 4h2l1 7-7 8-7 3h-9l-8-2-4-2v-2l-4-2-5-3-1-3 4-1 20 6 5 1v-2l8-2 1-3z" fill="#C5B2B3"/>
<path transform="translate(1235,1730)" d="m0 0 1 3-3 4 2 2-6 2-10 6-9 4-15 3h-18l3-3 9-5 5-3 6-1 7 1 12-2 10-5h2l2-4z" fill="#A1878E"/>
<path transform="translate(833,1139)" d="m0 0 6 1 28 8 18 4 8 2 14 2 13 2 12 1 16 3 3 1 6-1 1 5-6 2-13-4-10-2-17-2-9-2-13-2-11-4-14-2-16-4-6-2-10-5z" fill="#917A84"/>
<path transform="translate(1234,396)" d="m0 0v3l-3 4h-2l-2 5-8 11-5 10-3 9-4 13-2 4 6-1 7-1-5 4-5 2-12 5-5-1-2-2 1-6 2-2v3h2l1-4 2-4 5 2v4l3-12 6-15 6-9 6-10 2-3h2l2-4z" fill="#C5B2B3"/>
<path transform="translate(1266,437)" d="m0 0h24l5 3v3l-12 6-17 8-6 3-6 5h-2l-2 4-4 5-1 4 10-1-3 2-4 2-6-1v-5l7-9 12-10 14-6 4-1v-2l5-3 1-4h-19l-20 5-14 4-4-1 7-3 25-7z" fill="#E3D9D4"/>
<path transform="translate(1290,466)" d="m0 0h12l15 5 8 4v3l-5 1h-19l-16 4-5 2-3-1 7-4 7-2 3-3 6-2-1-3h-26l2-2z" fill="#EEBABE"/>
<path transform="translate(1085,1543)" d="m0 0 2 2-2 26-2 11-1 17 1 16 1 7h-5l-2-7v-33l3-16 1-1v-5l3-9z" fill="#E1D7D2"/>
<path transform="translate(794,1733)" d="m0 0 4 2 4 4v2l4 2 9 8v1h-22l-10-4 2-4 4-4z" fill="#A3888F"/>
<path transform="translate(693,368)" d="m0 0 4 1 7 6v2l4 2 7 8 9 10 15 20 2 3v3h2l2 4 3 3 2 5 1 3 3 11-1 4-8-16-5-9-6-10-5-9-10-12-7-8-11-12-7-6z" fill="#C5B2B3"/>
<path transform="translate(626,1012)" d="m0 0v3l-9 8-12 9-15 14-10 10-9 11-10 13-7 9-1-3 11-16 9-12 9-10 11-11 14-11 13-10z" fill="#9CBBC1"/>
<path transform="translate(1212,1099)" d="m0 0 3 1-8 8-11 7-14 9-10 5-15 5-5 2-11 2-21 7h-5l4-2 28-10 12-5 23-8 7-5h2v-3l5-3 4-1 7-5 4-2z" fill="#977F88"/>
<path transform="translate(708,1079)" d="m0 0h1l-1 8-11 22-1 1v10l-10 1-5 1 2-6 11-17 8-12z" fill="#F6F6F4"/>
<path transform="translate(700,793)" d="m0 0 4 5 2 3v18l5 5 1 5h2l1 4-3 1v-3h-3v-2l-7-1-12-6-2-3h2l2-4 9 6v2l6 2v-2l-4-2-4-5-1-10v-12z" fill="#EAE7E5"/>
<path transform="translate(963,676)" d="m0 0 5 2 8 5 3 2v-2l3 1v2l9 3 4 4-3 2-6 2-4 2h-5l-5-10-9-5-2-2 1-4z" fill="#EAE7E5"/>
<path transform="translate(1233,1593)" d="m0 0h1l-1 15 2 7 6 8-1 4-8 3-10 5 1-8 9-32z" fill="#A2878E"/>
<path transform="translate(1058,1542)" d="m0 0h1l-1 19-5 61-1 16-7 8-4 4 3-10 3-8 5-38 2-21 3-29z" fill="#32293E"/>
<path transform="translate(994,1182)" d="m0 0 17 1 5 3-1 5-5 2-13 3-9-1-3-3 8-8z" fill="#FAF8F6"/>
<path transform="translate(676,546)" d="m0 0 3 1-4 3-13 5-10 6-11 6-9 6-8 7-6 4-3 7h-2l-2 4h-2l-2 4-4 5-6 3 2-6 5-6 8-7-4 2-6 5-2-1 13-11 12-9 15-10 27-14z" fill="#D8B6B8"/>
<path transform="translate(542,261)" d="m0 0 1 3h2l1-2 5 9 5 4 6 2 7 1 8 3 18 6 2 3-7-1-1-1-11-2-14-4-11-1-4 1v-3l-5-2-3-7z" fill="#E5DBD7"/>
<path transform="translate(854,784)" d="m0 0h6l6 2v-2l3 1 2 5v7l-2 5-2 2-7-1-3-3-4-1z" fill="#5B606F"/>
<path transform="translate(1131,1257)" d="m0 0 1 4 7-2-5 6-1 7-1 3 3 1v3 9l1 7-4 11-2 4 1-9 1-3 1-11-4 2-1 3-5 1-4-1 1-2 3-1h4l-2-12 1-12z" fill="#EAE7E5"/>
<path transform="translate(1280,755)" d="m0 0 6 2 8 5-2 2-15 2-8 1-15 2h-5l2 14v16l-2 11h-2v-31l-2-10 1-5 39-2 2-1-7-5z" fill="#B4A2A5"/>
<path transform="translate(979,859)" d="m0 0h15l11 5 3 1-1 4h-20l-5 1-2-5-11 1v2h-2l-1-5 1-1h7v-2z" fill="#EFBBBF"/>
<path transform="translate(877,586)" d="m0 0h5l-1 3 5 2 2 2 14 7 2 4 7-1 4 1 3 6 4 3-1 2-8-4-4-4-14-2-4-3-9-2-1-4-4-3-6-1-1-4 5 1z" fill="#EAE7E5"/>
<path transform="translate(666,1646)" d="m0 0 2 1-2 6-4 10-1 8-3 6-3 9-2 5v2l-3 1-1-2v-8l3-16 7-13z" fill="#EAE7E5"/>
<path transform="translate(1020,1189)" d="m0 0 4 4 3 6v3h2l1 16-2 3-2 8-6 8-2-2-11 13-9 9-11 7-2-1 13-11h2l2-4h2l2-4 9-9 7-11 3-11v-8l-4-13z" fill="#5A7583"/>
<path transform="translate(967,953)" d="m0 0h19l5 3 4 5-6-3-20-1-2 1-5 1-8 9-6 4-11 9-11 5h-3l1-4 12-7 11-7 10-7 4-6 5-1z" fill="#987F88"/>
<path transform="translate(1419,312)" d="m0 0h2l5 15 5 14 3 6 2 9 1 5 2 1h-2l3 7 3 13 2 4-1 4-4-10-2-9-5-8-2-8h-2l-4-15-1-3-5-22z" fill="#E2D7D3"/>
<path transform="translate(1433,555)" d="m0 0h1v7l-4 12-4 1-5 6-4 4-3-1 5-15 2-5 1-4 4-4z" fill="#C8B6B6"/>
<path transform="translate(847,1354)" d="m0 0 4 2 9 8v2l4 2v2l4 2 7 6 3 4 3 1-1 7-4-1v-2l-4-2-5-5v-2l-4-2-8-7-4-5v-2l-3-1z" fill="#A2878E"/>
<path transform="translate(1404,680)" d="m0 0 2 2 9 28 9 34-1 4v-2h-2l-2-4-4-4v-6l-3-5-1-5 2-5h-2l-1-3 2-2-2-2v-7l-1-4-2-2-3-13z" fill="#EAE7E5"/>
<path transform="translate(1110,749)" d="m0 0 1 3-3 5 4 1 3-3 2 1-6 13-6 4-13 1 2-6 12-15z" fill="#5A606F"/>
<path transform="translate(667,433)" d="m0 0h16l21 5 19 8 18 8 12 5 1-6h2l1 9-7-1-27-11-10-4-1-2-17-6-13-2h-11l-14 1-2-2z" fill="#F4B1B8"/>
<path transform="translate(714,384)" d="m0 0 4 2v2l3 1 8 10 9 12 13 18 4 7 4 6 4 9 1 4-5 2-1-1v-7l-4-9-2-3v-3h-2l-1-3-2-1v-2l-3-1-1-4h-2l-3-6-6-8-10-13-7-8z" fill="#E7DFDA"/>
<path transform="translate(1289,1469)" d="m0 0h1l3 19 5 10 1 3 13 2 2 2-5 6h-8l-7-4-4-12-2-23z" fill="#C5B2B3"/>
<path transform="translate(1088,1305)" d="m0 0h2l1 5v11l-1 3 5 14 4 8 1 3h-3v4l3 1-2 1-6-5-2-2-4-3-1-8 8 8v-3l-2-2-3-1-3-14v-2l-3-3 1-2 5 2-1-9z" fill="#E9E6E4"/>
<path transform="translate(1267,898)" d="m0 0h9l1 2-7 2-9 1-2 3 5-2h6v1l-9 3-8 4-1 4 3 1 5 1v2l-8-1-7-2-1-1v-6l3-6 3-2 9-3z" fill="#E2D8D3"/>
<path transform="translate(991,871)" d="m0 0h9l18 2 4 1-5 5-5 1v2l-5 1v-2l-3-1-12-1h-3l-1-5 3-1z" fill="#F28F9F"/>
<path transform="translate(1142,643)" d="m0 0 2 2 10 1h21l26 2 15 3 1 3-7 1-9-3-25-2-28-1-7 1-1-5z" fill="#EAE7E5"/>
<path transform="translate(1159,1531)" d="m0 0 4 1 1 4-3 2v5l4 2v5l-7-3-7 2-5 3-1-3h2v-6l-6-4 1-3 7 1 4-2z" fill="#EAE7E5"/>
<path transform="translate(814,565)" d="m0 0h6l6 4 5 1 8 1 12 3 5 1 6 2v3l-5-1-9-3-30-1-5-2h-6v-4l-2-1 4 1 3 2 1-5z" fill="#EAE7E5"/>
<path transform="translate(659,764)" d="m0 0h27l23 1v36l3 22 1 6-2-2-3-10-1-11v-36h-2v-2l-7 1-13-1 7 2v2l-9-2-8-2-3-1v-2h-13z" fill="#C8B6B6"/>
<path transform="translate(936,1744)" d="m0 0 2 1v2l-7 4-12 3h-13l-10-1-5 1 1-3 11-4h2v-2l14 2h7l7-1z" fill="#A68C92"/>
<path transform="translate(1282,469)" d="m0 0h17l2 4-9 4-12 4-10 6-7 4h-3l6-5 10-6 6-3 2-4-12 1-13 3-4-1 8-3z" fill="#E1D6D1"/>
<path transform="translate(1269,434)" d="m0 0h19l12 3 5 3 1 3-8 4-14 5-2-1 5-3 12-5 1-3-9-3-11-1-20 1v2l-18 5-12 4h-2v2l-6 3-4-1h3l1-3 9-4h3v-2l13-4 15-4z" fill="#EFBBBF"/>
<path transform="translate(938,1132)" d="m0 0h80l-3 2-24 3-7 2-5-2-38-3z" fill="#271D32"/>
<path transform="translate(914,1279)" d="m0 0 7 1 5 8 2 8-1 8-2 9-1 2h-2l-2 4 1-10 1-5v-7l-5-9-4-3v-5z" fill="#EAE7E5"/>
<path transform="translate(1017,737)" d="m0 0 4 2-2 4-2 10-8 2h-4l-3-6 1-6 7-2z" fill="#EAE7E5"/>
<path transform="translate(1386,1354)" d="m0 0 17 1 10 3 10 8 2 3v3l-9-1-14-4 4-1 8 2 1-6-12-3-7-1-21-1-1-2z" fill="#E8E5E3"/>
<path transform="translate(1305,557)" d="m0 0 6 2 19 12 16 13 3 3 2 5-5 1-2-4-4-2-5-6-3-3-3-1v-2l-4-2-9-7-8-6z" fill="#E3DAD5"/>
<path transform="translate(680,1237)" d="m0 0 3 3 3 14v15l3 12v5l-3 1-1-10-3-12-3-7-1-9z" fill="#EAE7E5"/>
<path transform="translate(1386,1053)" d="m0 0 7 6 12 15 7 11 2 6-7-6-22-26-2-4z" fill="#658894"/>
<path transform="translate(1010,718)" d="m0 0h10l1 4-6 2h-8l3 5-1 5-6-1-5-2-1-4 2-5 5-3z" fill="#EAE7E5"/>
<path transform="translate(1274,360)" d="m0 0 2 1-12 12-4 2-3 4h-2l-2 4-12 11-3 3h-2l-2 4-13 18-7 12-1-2 7-13 8-11 1-2h2l2-4 9-10 2-3h2l2-4 4-4h2l2-4 5-3 4-2z" fill="#F3B2B9"/>
<path transform="translate(1289,1108)" d="m0 0 4 1-1 4-6 4-16 3-15 9-6 3h-2v2l-7 3h-3l1-2 13-7 8-5 12-7 12-5z" fill="#E1D6D1"/>
<path transform="translate(723,846)" d="m0 0h2l7 8 5 4v2l4 2 3 1v2l5 1 8 4 19 5 6 1h23l13-1v1l-14 3h-18l-24-4-11-4-8-5-9-7-10-10z" fill="#A19197"/>
<path transform="translate(1357,599)" d="m0 0h3v2l4 1 1 3h2v2h2l4 4v2l4 1-3 6-4-1v5l-2-3-2-5-3-1v-2h-2l-6-12z" fill="#E1D6D1"/>
<path transform="translate(1418,601)" d="m0 0 1 4-18 36-4 6-1-3 4-17 6-8 2-1 3-6 5-8z" fill="#C8B7B7"/>
<path transform="translate(675,514)" d="m0 0 9 1v4l5 2 4 3 1 4-1 2h-6l-6-5-11-4v-5l-2-1z" fill="#EBE8E6"/>
<path transform="translate(973,1144)" d="m0 0 3 4 5 3-1 4h-6v2l-6 4h-2l1 17-2 2-2-4v-5l1-4v-12l4-6z" fill="#595D6C"/>
<path transform="translate(1288,477)" d="m0 0 4 1-12 5-4 4-10 5-10 7-4 4h-2v3h15l-1 3h-18l-1-4 5-5 10-8 7-5 12-6z" fill="#DCB7B9"/>
<path transform="translate(639,514)" d="m0 0 4 1-4 2-4 1-4 4h12l15 2 12 2 10 4 6 5 1 3-5-2-8-5-7-3-22-3h-20v-3l1-2h2v-3l4-2z" fill="#C5B2B3"/>
<path transform="translate(651,436)" d="m0 0h6l-5 5 8 4 10 4 19 10 2 4-12-6-19-8-14-4-2-2 1-5z" fill="#F3B3B9"/>
<path transform="translate(934,1240)" d="m0 0 4 1 5 5 11 12 7 7 9 5h8l6-3 2 1-6 4-10 1-9-5-7-6v-2l-4-2-3-3-7-1-5-6z" fill="#98828A"/>
<path transform="translate(812,1110)" d="m0 0 20 4 28 6 21 3v2h9l19 2v1h-11l-33-4-30-6-21-5z" fill="#6F6D7A"/>
<path transform="translate(1235,814)" d="m0 0 1 3-7 16-7 10-4 7-10 10-11 7-11 4-3-1 13-6 9-6 5-4 13-17 8-16z" fill="#5A7B88"/>
<path transform="translate(1353,1026)" d="m0 0 5 1 9 7 10 9 9 9-1 3-4-1-15-15-11-9z" fill="#92BEC6"/>
<path transform="translate(1250,732)" d="m0 0 5 1 23 8-4 1-4-1h-9v3l19 10-4 1-22-12-1-3-6-1-5-4 5 1 5 2 2-2z" fill="#E1D6D1"/>
<path transform="translate(690,454)" d="m0 0 11 1h8l6 1v3h2l1 4-2 2h-11l-8-6-7-4z" fill="#EAE7E5"/>
<path transform="translate(1584,1521)" d="m0 0 1 3-3 7-7 9-4 2h-2l-10 5-5-1 2-2 7-3 6-7 7-7 3 1 1 2 2-3-2-1 2-1z" fill="#E2D7D2"/>
<path transform="translate(1399,848)" d="m0 0 10 3 14 6 3 2 10 2h1l3 1-1 3h-10l-10-2v-2l-4-1-5-2 2-2-13-6z" fill="#EBE8E6"/>
<path transform="translate(737,751)" d="m0 0 4 1 6 2 2 2-1 5-3 7h-1l-1-5-14-4-2 1 2-4 3-3z" fill="#5B606F"/>
<path transform="translate(664,759)" d="m0 0 3 1-5 1v2h43l6 2-1 18v16l2 17 1 10-2-3-3-22v-24l1-12h-23l-27-1-2-2z" fill="#847580"/>
<path transform="translate(712,779)" d="m0 0h2v24l1 2v11l4 11-4-1v-3l-3-1-2-12v-25z" fill="#281E33"/>
<path transform="translate(1064,1487)" d="m0 0h1v22l-4 37h-1v-12l1-15-1 7h-1v-16l3-19z" fill="#967E87"/>
<path transform="translate(1075,1366)" d="m0 0h1v7l-2 13-1 2v5l-3 2-4 9-7 4-5-1-9-5 3-2h8l4 1 5-1v-2h2l3-9 3-15z" fill="#E1D6D1"/>
<path transform="translate(1401,810)" d="m0 0h5l-2 3 1 4 1 6h2l-2-4 1-3 9 12 9 9 3 2-1 3-9-6-1-2-3-1v-2h-2v-2h-2l-4-4-4-2-1-4-2-2v-5z" fill="#EEEBE9"/>
<path transform="translate(1103,724)" d="m0 0 1 3-7 6-5 6-3 3-1 3-5 5-4 6h-2l-2 6-1 2h-2l-1 6-3-1 6-12 7-11h2l2-5 9-10z" fill="#E7E3E0"/>
<path transform="translate(1143,1509)" d="m0 0h3l1 7 4 6h4v-2h3l1-9 2-1 3 3-1 5-3 2-2 6-4 1-6-3-7-5 1-9z" fill="#EAE7E5"/>
<path transform="translate(1197,448)" d="m0 0 5 2-1 8 9-1-4 3-10 4-5-1-2-2 1-6 2-2v3h2l1-4z" fill="#E1D6D1"/>
<path transform="translate(581,1049)" d="m0 0h3l-1 4-10 11-12 16-7 9-1-3 11-16 9-12z" fill="#668A96"/>
<path transform="translate(1349,1269)" d="m0 0 2 2 5 21-1 4-5-3-1-5-3-1v-14h2z" fill="#EAE7E5"/>
<path transform="translate(689,490)" d="m0 0 7 4 11 9 2 3-2 2-15 1-35 1 2-2 9-1 35-1-1-4-10-7-3-2z" fill="#EFBBBF"/>
<path transform="translate(845,1756)" d="m0 0h16l5 1-1 4-2 1h-18l-11-2 1-3z" fill="#A78E94"/>
<path transform="translate(1458,1582)" d="m0 0 4 2-3 5-6 7-9 7-6 1-5-2-5-5-2-6h3l3 6 6 2 7-2 8-5z" fill="#EAE7E5"/>
<path transform="translate(939,1288)" d="m0 0 8 3 10 1 3 3 9 2 3 2-5 1h-3l8 4-3 1-10-4-9-3-1-2 3-1-10-2-3-3z" fill="#EAE7E5"/>
<path transform="translate(1293,1384)" d="m0 0 2 2v12l-1 12v20l-3 1-1-8 1-33 1-5z" fill="#E2D8D3"/>
<path transform="translate(721,770)" d="m0 0 4 1v4l4 1 4 5v2l4 1 2 3v11h-1l-1-8-1-3h-4v-2h-3v-2l-6-2-5-1z" fill="#C5B2B3"/>
<path transform="translate(542,261)" d="m0 0 1 3h2l1-2 5 9 5 4 6 3v1l-16-1-2-1-3-7z" fill="#EAE7E5"/>
<path transform="translate(689,438)" d="m0 0 7 1 17 6 5 2 2 4-7-1-4-1-4 1-1-2 1-1-6-3v2l-11-3-2-1v-2z" fill="#E9E1DD"/>
<path transform="translate(981,621)" d="m0 0 2 1v7l-3 8-3 3h-2v-5l-4-7 3-5z" fill="#C6B4B4"/>
<path transform="translate(503,387)" d="m0 0h1l1 49 1 24v12l-2-3-2-40v-22z" fill="#D0C2C2"/>
<path transform="translate(980,1140)" d="m0 0h8l-4 2-4 1 5 3-1-3 5 1 4 4v2h-4l1 3 4 2 1 2v7l-2 2-2-10-8-6-8-5v-2z" fill="#C6B3B4"/>
<path transform="translate(1429,363)" d="m0 0 2 3 3 26 1 16-1 20-1 7h-1v-17l-1-34-2-10z" fill="#FCFAF8"/>
<path transform="translate(1265,506)" d="m0 0h11l25 2 11 3v2l5 1 2 3-10-3-16-4-27-1z" fill="#DFB7BA"/>
<path transform="translate(1420,384)" d="m0 0h2l1 25v17l-3 31-2 10h-1l1-12 2-25z" fill="#FBA6B0"/>
<path transform="translate(673,473)" d="m0 0 10 1 7 3 4 1v2l-2 1v4l-5-1-16-7z" fill="#E1D6D1"/>
<path transform="translate(1286,528)" d="m0 0 2 1-10 7-3 6 4 1 6 2v2h3v2l9 3 8 4-4 1-11-4-6-5-11-3-3-3 2-5z" fill="#D7BABB"/>
<path transform="translate(1193,919)" d="m0 0 2 1-1 5-2 4v6l5 2v9l-4 4-1 2-2-1 1-4 2-1-2-2v-5l-5-5 2-5z" fill="#EAE7E5"/>
<path transform="translate(995,957)" d="m0 0 7 6 2 1v2l4 1v2l5 2 12 7 5 3 3 3-12-3-8-5-2-3-7-4-10-9z" fill="#393045"/>
<path transform="translate(1071,1391)" d="m0 0 4 1 1 5 5-2 4-3-2 4-4 7-1 3 4 1-1 2-7-1 1-5-3 1-2-4-1-5z" fill="#FAF8F6"/>
<path transform="translate(1179,1121)" d="m0 0 3 1-12 5-37 14-13 4h-5l4-2 28-10 12-5z" fill="#5A7B88"/>
<path transform="translate(1395,1367)" d="m0 0 5 5 5 6 3 7-1 8-4 2-2-6v-8l-2-7-3-1z" fill="#ECE9E7"/>
<path transform="translate(1367,256)" d="m0 0 3 1-5 3-13 5-6 4-26 12-13 7-2-1 22-12 28-14z" fill="#EAE7E5"/>
<path transform="translate(1178,1715)" d="m0 0h5l1 2-3 1-10 2h-11v1h-10l-6-1-4-1-1 1h-5v-2l-2-1h34z" fill="#E1D6D1"/>
<path transform="translate(1305,521)" d="m0 0m-7 0h6l3 3-14 2-14 7-5 4h-2l-1 3h-2l1 4h-2l-1-3 6-7h2v-2l14-9z" fill="#E4DAD6"/>
<path transform="translate(713,445)" d="m0 0 6 1 15 5 12 5 7 3 1-6h2l1 9-7-1-27-11-10-4z" fill="#DBB6B9"/>
<path transform="translate(1153,1008)" d="m0 0 2 1-1 4 9 1 20-3 3 1-9 3-16 3-11-1-1-3 2-4h2z" fill="#E1D6D1"/>
<path transform="translate(1019,703)" d="m0 0 5 2 3 3v4l-7 2-5-1-1-1v-8z" fill="#EAE7E5"/>
<path transform="translate(564,918)" d="m0 0 5 1 1 5h2l2 5 3 3 1 9h-3l-9-17z" fill="#EAE7E5"/>
<path transform="translate(984,603)" d="m0 0 3 2v7l-4-2-11 3-1 11-2-3v-7l2-6h5v-2l6-2z" fill="#E1D6D1"/>
<path transform="translate(1237,1731)" d="m0 0h2l1 5 5 2 4 2 8 1 1 2h-15l-11-5 3-5z" fill="#5F6271"/>
<path transform="translate(1020,1189)" d="m0 0 4 4 3 6v3h2l1 16-5 5-2 1 2-11v-8l-4-13z" fill="#6F838E"/>
<path transform="translate(801,1743)" d="m0 0 4 2 4 3 5 2 1 2h-17l-3-1 2-5 1-2z" fill="#8C7882"/>
<path transform="translate(706,755)" d="m0 0 11 1 1 3 6-1-2 4-4 1-13-2-3-2v-2z" fill="#271D32"/>
<path transform="translate(967,953)" d="m0 0h19l5 3 4 5-6-3-20-1-2 1-2-2z" fill="#BDAAAC"/>
<path transform="translate(624,521)" d="m0 0 2 1-1 2h20l4 1v2h-21l-7 2h-6v-3z" fill="#F1B6BC"/>
<path transform="translate(1280,435)" d="m0 0 16 2 5 3-2 4-17 7-3-1 14-7h2l-2-4-3-1h-30v-1l5-1z" fill="#C5B2B3"/>
<path transform="translate(606,1358)" d="m0 0 4 4-1 2-15 5-4-2 5-5 6-3z" fill="#FCFAF8"/>
<path transform="translate(808,906)" d="m0 0h7l13 5 5 4v2l3 1 1 4-4 7-2-1 1-8-4-3v-3l-5-2-7-3-8-2z" fill="#EAE7E5"/>
<path transform="translate(1081,1321)" d="m0 0 5 2 2 13 1 3 4 1 2 6-7-2-3-5-2-3-1-9h-1z" fill="#FAF8F6"/>
<path transform="translate(1104,793)" d="m0 0 2 1v6l-6 2-9-3-1-1-2 3-2-4v-2l5-1 7 1 2 1 4-1z" fill="#C5B2B3"/>
<path transform="translate(616,584)" d="m0 0 1 2-2 5h-2l-2 4h-2l-2 4-4 5-6 3 2-6 5-6 8-7z" fill="#E1D6D1"/>
<path transform="translate(1364,285)" d="m0 0 3 1v2l-10 4-8 4-7 5-6 1 2-4 13-7z" fill="#E7DFDB"/>
<path transform="translate(1395,667)" d="m0 0 2 1-2 4-1 9 1 4 6 1 3-2v4h-9l-3 1-1 2 1-5 1-2-3-1v-5l-2-3 3-1 1-5z" fill="#EAE7E5"/>
<path transform="translate(1286,468)" d="m0 0h18l7 3v3l-6 2-12 2-1-2 8-3-1-3-13-1z" fill="#C5B2B3"/>
<path transform="translate(1258,436)" d="m0 0h2v3l-18 5-12 4h-2v2l-6 3-4-1h3l1-3 9-4h3v-2l13-4z" fill="#E1B9BB"/>
<path transform="translate(1018,1234)" d="m0 0 1 4-11 13-10 9-5 1 17-17z" fill="#473F52"/>
<path transform="translate(955,973)" d="m0 0h2l-1 8 4 5 10 4v3l-7-2-12-6-1-2h-3l4-4 2-3h2z" fill="#E7E2DF"/>
<path transform="translate(941,1243)" d="m0 0 7 6 3 3v2h2l7 8 9 6h9l9-3v2l-9 4h-8l-10-6-15-15-4-5z" fill="#32293F"/>
<path transform="translate(1212,1099)" d="m0 0 3 1-8 8-8 5-7 3-8 5-2-1 7-5h2v-3l5-3 4-1 7-5 4-2z" fill="#6C7B87"/>
<path transform="translate(1501,1477)" d="m0 0 3 3 3 6v6l1 4-2 9h-1l-1-9-4-11v-7z" fill="#E2D8D3"/>
<path transform="translate(1496,1404)" d="m0 0h3l-1 3-5 1-2 6-3 7h-2l-2 5h-2l-1-4 3-7 10-10z" fill="#EAE7E5"/>
<path transform="translate(1266,454)" d="m0 0v3l-6 3-6 5h-2l-2 4-4 5-1 4 10-1-3 2-4 2-6-1v-5l7-9 12-10z" fill="#E1D6D1"/>
<path transform="translate(1218,344)" d="m0 0 2 1-9 9-12 9-6 5-7 5-2-1 9-8 14-11z" fill="#E7E6E4"/>
<path transform="translate(1271,1653)" d="m0 0 2 3 1 5 3 4-1 3 4 3v2l4 2-7-1-4-4-3-4-1-9z" fill="#E9E5E3"/>
<path transform="translate(943,1181)" d="m0 0h5l-12 6-6 8-2 10 1 13-2-1-1-5-1-16 7-9 8-5z" fill="#5C7A87"/>
<path transform="translate(1089,1746)" d="m0 0 6 1 5 5-9 3h-5l-1-5 4-2z" fill="#947D86"/>
<path transform="translate(1250,1666)" d="m0 0 3 3 3 7 6 9 4 4-2 2-3-2v-2l-4-2-5-8v-2h-2l-2-8z" fill="#E4DAD5"/>
<path transform="translate(947,1252)" d="m0 0 7 6 7 7 9 5h8l6-3 2 1-6 4-10 1-9-5-7-6v-2l-4-2-3-3z" fill="#77707C"/>
<path transform="translate(1166,999)" d="m0 0 2 4 1 1h18l-3 2-4 2-10 2-5-1-1-5z" fill="#E1D6D1"/>
<path transform="translate(510,851)" d="m0 0 3 1-1 2-10 4-4 4-8-3v-2z" fill="#E3E4E3"/>
<path transform="translate(1247,773)" d="m0 0h1l3 10v16l-2 11h-2z" fill="#988991"/>
<path transform="translate(833,1139)" d="m0 0 6 1 28 8 2 1v2l-6-1-14-3-6-2-10-5z" fill="#987F88"/>
<path transform="translate(1282,450)" d="m0 0m-6 1h6v2l-22 10-4 4-2-1 7-8 14-6z" fill="#E0B7BA"/>
<path transform="translate(1011,1163)" d="m0 0h15l-4 3-5 2-14-1-3 1-1 3-1-2 2-4 2-1z" fill="#A2878E"/>
<path transform="translate(1084,1690)" d="m0 0 1 2 6 2 8 7 8 6-4 2-7-7-11-6-2-5z" fill="#E5DCD8"/>
<path transform="translate(1582,1441)" d="m0 0 2 3 6 14 2 8h-2l-1 3h-1l-1-11-4 2-1-4h2l-1-8-1-1z" fill="#EAE7E5"/>
<path transform="translate(1231,1138)" d="m0 0 3 1-3 3-9 4-16 8-5 2 2-4 14-7 3-2z" fill="#E1D6D1"/>
<path transform="translate(723,846)" d="m0 0h2l7 8 5 4v2l4 2 3 1v2l5 1 3 2v2l10 3-4 1-14-7-10-8-10-10z" fill="#B19FA3"/>
<path transform="translate(844,828)" d="m0 0 3 1 1 8-1 5 1 7v3l-4 2-2-7 3-14-2-4z" fill="#C5B2B3"/>
<path transform="translate(1010,778)" d="m0 0 6 3 6 8 4 8 3 8-1 2-4-6-7-15-7-3z" fill="#EAE7E5"/>
<path transform="translate(601,1357)" d="m0 0m-3 1h3v2l-6 3-4 4 3 2-8 4h-3l1-5 7-6z" fill="#DFE1E1"/>
<path transform="translate(1217,848)" d="m0 0v3l-9 9-11 7-11 4-3-1 13-6 9-6z" fill="#5A707E"/>
<path transform="translate(539,837)" d="m0 0 1 2-1 3h-2l-2 4-16 5-5 1-1-2 13-5z" fill="#E9E6E4"/>
<path transform="translate(1355,600)" d="m0 0 5 2 4 6 2 5h2l2 6v5l-2-3-2-5-3-1v-2h-2l-6-12z" fill="#EBE6E3"/>
<path transform="translate(1157,706)" d="m0 0h21l3 1v2l-9 2h-9v-1l-8-1v-2z" fill="#E5E1DF"/>
<path transform="translate(750,433)" d="m0 0 4 1 5 8 4 9 1 4-5 2-1-1v-7l-4-9-2-3v-3z" fill="#E3DAD6"/>
<path transform="translate(1266,437)" d="m0 0m-6 1h6v2l-20 5-14 4-4-1 7-3z" fill="#E1D6D1"/>
<path transform="translate(507,806)" d="m0 0 4 1-1 5h-2l-2 4-7-1-1-4z" fill="#EAE7E5"/>
<path transform="translate(805,1646)" d="m0 0 6 1 7 6 8 10 1 4-7-6-6-8-7-4-8 1 3-3z" fill="#EAE7E5"/>
<path transform="translate(1246,727)" d="m0 0 5 2 8 3 10 3 7 2 1 3-8-1-14-5-8-3z" fill="#E9E6E4"/>
<path transform="translate(1189,1749)" d="m0 0h19v2l-13 3h-9z" fill="#967F88"/>
<path transform="translate(1288,477)" d="m0 0 4 1-12 5-4 4-10 5-4 3-2-1 4-5 12-7z" fill="#D4B5B7"/>
<path transform="translate(626,1012)" d="m0 0v3l-9 8-12 9-2-3 17-13z" fill="#96C5CD"/>
<path transform="translate(1395,654)" d="m0 0 2 3 7 20-1 3-4-5-1-7-4-7-2-5z" fill="#EBE8E6"/>
<path transform="translate(860,1122)" d="m0 0h15l6 1v2h9l19 2v1h-11l-33-4-5-1z" fill="#686876"/>
<path transform="translate(639,514)" d="m0 0 4 1-4 2-4 1-4 4 4 1-4 2h-6v-3l1-2h2v-3l4-2z" fill="#C7B2B3"/>
<path transform="translate(1130,1684)" d="m0 0h32v1l5 1v1l-6 1-8-1-20-1z" fill="#EAE7E5"/>
<path transform="translate(1e3 757)" d="m0 0 4 2v1l-12 1-15 7-2-6h9l5-4z" fill="#EAE7E5"/>
<path transform="translate(1253,501)" d="m0 0 1 3 33 1 10 2v1l-21-1h-24l-2-1v-3z" fill="#FBA6B0"/>
<path transform="translate(990,1180)" d="m0 0h3l-2 5-8 8-3 2h-7l1-2 5-2 9-8z" fill="#433D50"/>
<path transform="translate(987,1173)" d="m0 0 3 1-5 7-6 1-11-1-3-1 5-2h7l7-3z" fill="#C5B2B3"/>
<path transform="translate(689,490)" d="m0 0 7 4 11 9 2 3-2 2h-7l1-2h2l-1-4-10-7-3-2z" fill="#EFB9BE"/>
<path transform="translate(1437,389)" d="m0 0 3 3-1 3h2l5 17 1 8h-2l-4-14-3-8z" fill="#FCFAF8"/>
<path transform="translate(1292,1362)" d="m0 0h3v9l-1 5 1 3-1 4-2 1-2-8h-2l-1 2 1-5 3-4h2v-4l-2-1z" fill="#E1D7D2"/>
<path transform="translate(925,1198)" d="m0 0h1l1 14 3 12-1 3v-2h-2l-3-9-1-12z" fill="#595C6B"/>
<path transform="translate(968,1166)" d="m0 0h12l-2 4-3 3h-6l-2-1v-5z" fill="#C5B2B3"/>
<path transform="translate(691,462)" d="m0 0 6 4 6 6v4l-8-1-7-3 4-1h5l-6-7z" fill="#EFBBBF"/>
<path transform="translate(538,246)" d="m0 0 3 1-2 1 1 6h-6l-4 5h-2v-3l3-2h-3l2-4 4-3z" fill="#EAE7E5"/>
<path transform="translate(567,1066)" d="m0 0 2 1-2 5-12 16-2 1 1-4 10-15z" fill="#789EA8"/>
<path transform="translate(854,691)" d="m0 0 7 1-1 3-8 3-6 3 1-8z" fill="#FCFAF8"/>
<path transform="translate(1319,517)" d="m0 0 6 2 3 2-1 3-3 1h-16l-17 2 2-2 14-2 15-1v-2z" fill="#C5B2B3"/>
<path transform="translate(503,436)" d="m0 0h2l1 24v12l-2-3-1-14z" fill="#CAB8B9"/>
<path transform="translate(722,825)" d="m0 0h2l6 12 12 13 5 6-4-2-5-4v-2h-2l-10-13-4-7z" fill="#A6BAC0"/>
<path transform="translate(1297,508)" d="m0 0 9 1 6 2v2l5 1 2 3-10-3-16-4z" fill="#E0B1B5"/>
<path transform="translate(1424,340)" d="m0 0h2l3 12h2l3 13-2 2v-5l-4 1-2-13z" fill="#F1EDEA"/>
<path transform="translate(913,1707)" d="m0 0 7 1 1 3h2l2 4h-3l-4-4-8 1-6 3-3-1 2-1v-2z" fill="#E1D6D1"/>
<path transform="translate(1026,1219)" d="m0 0h1v8l-2 4-6 6-1-4 3-8 4-3z" fill="#6C727E"/>
<path transform="translate(1395,1342)" d="m0 0h8l1 2-15 1-14 7h-2l2-4 9-4z" fill="#EAE7E5"/>
<path transform="translate(1026,979)" d="m0 0 10 3 3 3 2 5-4-1-14-7 3-1 4 1-4-2z" fill="#917C85"/>
<path transform="translate(1117,957)" d="m0 0 5 2 10 1v1l-8 2v5l-7-4-7-1v-1h8z" fill="#EAE7E5"/>
<path transform="translate(983,920)" d="m0 0 8 4-3 5-3 1v2h-2l-2-5v-6z" fill="#DCD1CD"/>
<path transform="translate(993,880)" d="m0 0h10l3 3-6 4-5-1-2-3z" fill="#2B2136"/>
<path transform="translate(1235,397)" d="m0 0v3l-10 13-9 15-3 3 2-6 6-10 8-12h2l2-4z" fill="#EFBBBF"/>
<path transform="translate(664,759)" d="m0 0 3 1-5 1v2h43v1h-46l-2-2z" fill="#736C78"/>
<path transform="translate(996,762)" d="m0 0h9l2 3-16 3-5 1 1-3z" fill="#EAE7E5"/>
<path transform="translate(1244,1663)" d="m0 0 3 4 3 6v2h2l4 7-1 2-3-2-3-5-2-1-1 2v-7h-2l-2-7z" fill="#C8B6B6"/>
<path transform="translate(1064,1487)" d="m0 0h1v22h-1l-1-6-2 6h-1l1-12 2-9z" fill="#A2878E"/>
<path transform="translate(934,874)" d="m0 0 5 3 8 1 5 1v2h-2l2 4-9-3-8-5z" fill="#E3909D"/>
<path transform="translate(1299,525)" d="m0 0h7l-3 2-9 2-1 1h-5v2l-9 5-2-1 8-6 3-3z" fill="#EFBABE"/>
<path transform="translate(1269,469)" d="m0 0h13l-4 2-19 4-4 2h-5l4-2h2v-2z" fill="#D6B5B8"/>
<path transform="translate(1331,1216)" d="m0 0 2 1 4 12-4 2-2-2-2-6v-5l2 1z" fill="#EBE8E6"/>
<path transform="translate(900,1679)" d="m0 0h2v2l-8 6-12 3h-8l-3-2 13-1 12-4z" fill="#EAE7E5"/>
<path transform="translate(1032,1331)" d="m0 0 4 1-2 5-6 3-5-2 1-3 8-2z" fill="#EAE7E5"/>
<path transform="translate(723,724)" d="m0 0 2 1-3 3-10 6-5 1v2l-2-1 4-5 9-5z" fill="#A7959B"/>
<path transform="translate(1324,1204)" d="m0 0 5 3 2 6h-2l-1 5-2-2-4-8z" fill="#EAE7E5"/>
<path transform="translate(952,880)" d="m0 0h8l-1 8-4-1-5-4v-2z" fill="#2C2238"/>
<path transform="translate(1282,771)" d="m0 0h1l-1 7-1 5h-2l1 3-3 2-2 4-1-8 4-4z" fill="#ECEAE8"/>
<path transform="translate(1280,755)" d="m0 0 6 2 8 5-2 2-5 1-17-1v-1l15-1 2-1-7-5z" fill="#9C8D94"/>
<path transform="translate(1207,443)" d="m0 0h1l-1 8-2 4 6-1 7-1-5 4-12 1 1-4h2l1-5z" fill="#E1BABC"/>
<path transform="translate(1109,848)" d="m0 0 4 2 3 4v2h2v2l4 1 5 4v2l-5-2-12-11-2-3z" fill="#8DC2CB"/>
<path transform="translate(994,777)" d="m0 0 11 1-2 2-11 2-11-1v-1z" fill="#EAE7E5"/>
<path transform="translate(1565,1463)" d="m0 0 4 1 4 3-7 2-9-1-4-2 7-1z" fill="#E9E5E2"/>
<path transform="translate(1478,1440)" d="m0 0 3 1 4 7-1 6-3-1-4-9z" fill="#E1D6D1"/>
<path transform="translate(1250,740)" d="m0 0h3l3 3 18 10v1h-7l-2-3-6-3-9-6z" fill="#342A40"/>
<path transform="translate(624,519)" d="m0 0 4 1-9 5-4 1v3h6v1l-9 2-2-4 10-7z" fill="#F491A1"/>
<path transform="translate(546,264)" d="m0 0 3 3 3 5 9 6-7-1-6-2-3-8z" fill="#E1D7D2"/>
<path transform="translate(1092,1517)" d="m0 0 2 1-4 20-2 5h-2l2-11z" fill="#E1D6D1"/>
<path transform="translate(706,802)" d="m0 0 2 4 2 18-5-5v-12z" fill="#FCFAF8"/>
<path transform="translate(845,758)" d="m0 0 4 2-1 5h2l1 4-4 1-5-4 2-6z" fill="#281E33"/>
<path transform="translate(1227,847)" d="m0 0 1 2-7 8-13 12h-2l2-4 8-7 7-6z" fill="#9C8C93"/>
<path transform="translate(621,577)" d="m0 0 2 1-1 3-7 5-7 4-6 5-2-1 13-11z" fill="#E7BBBE"/>
<path transform="translate(1212,431)" d="m0 0 1 3-4 9h-2l-1 6-2 5h-1v-6l4-11 4-2z" fill="#D0B4B6"/>
<path transform="translate(1192,1678)" d="m0 0h2v2l-7 5-16 2-3-2 9-1 1-1 10-2z" fill="#EAE7E5"/>
<path transform="translate(1386,1354)" d="m0 0h8l3 2-1 1h-21l-1-2z" fill="#EBE8E6"/>
<path transform="translate(984,1141)" d="m0 0h6l6 5v2l-3 1-4-4-4-1v2l-6-2 1-2z" fill="#EAE2DF"/>
<path transform="translate(1362,619)" d="m0 0 3 4 2 13-2 4-4-16z" fill="#EAE7E5"/>
<path transform="translate(1327,569)" d="m0 0 4 1 11 7 8 7h-3l-2-2-5-2-10-8z" fill="#E0B6B9"/>
<path transform="translate(747,1190)" d="m0 0 7 1v1l-19 3-9 5h-2v-2h2v-2l15-5z" fill="#E1D6D1"/>
<path transform="translate(961,955)" d="m0 0h5l-5 5-7 8-6 3 2-5 7-5z" fill="#937D86"/>
<path transform="translate(846,852)" d="m0 0h2l-1 3-13 9-8 4-3-1 12-7 5-3z" fill="#5A7683"/>
<path transform="translate(1080,749)" d="m0 0 1 3-2 4h-2l-2 6-1 2h-2l-1 6-3-1 6-12z" fill="#E8E4E2"/>
<path transform="translate(1253,741)" d="m0 0 5 1 18 10 4 3-6-1-20-11z" fill="#A39399"/>
<path transform="translate(713,331)" d="m0 0 4 2 14 10 9 7h-3l-6-4-16-12z" fill="#EAE7E5"/>
<path transform="translate(1235,1247)" d="m0 0 3 4-1 5-5 1-6-3v-1l8-2z" fill="#EAE7E5"/>
<path transform="translate(999,1156)" d="m0 0h1l1 8-4 12-3 6-1-2-2-1 3-6h2l2-8z" fill="#706D7A"/>
<path transform="translate(1181,1101)" d="m0 0h6l-3 2-17 5-4-1h3l1-3h7v-2z" fill="#9A8189"/>
<path transform="translate(1414,810)" d="m0 0 5 2 7 2-1 2-17-2-1-2z" fill="#EFECEA"/>
<path transform="translate(1172,1125)" d="m0 0m-2 1 2 1-4 1v2l-16 6h-5l2-2z" fill="#957D86"/>
<path transform="translate(1037,1665)" d="m0 0 4 1 2 5 1 12-3-3-1-7-2-1z" fill="#E1D6D1"/>
<path transform="translate(1013,975)" d="m0 0 5 1h3l5 3 7 4-2 1-12-4-6-4z" fill="#5E5666"/>
<path transform="translate(1464,855)" d="m0 0 8 1 2 1-1 3-7 2-2-2z" fill="#E8E5E2"/>
<path transform="translate(1401,810)" d="m0 0h5l-2 3 1 4 1 5-7-4v-6z" fill="#FCFAF8"/>
<path transform="translate(663,466)" d="m0 0 10 1 12 2 3 1v2l-8-1-13-2v-2z" fill="#F4B2B8"/>
<path transform="translate(747,856)" d="m0 0 5 2 9 5 6 3 5 2v2l-9-3-11-6z" fill="#9FBDC3"/>
<path transform="translate(1226,834)" d="m0 0 1 2-5 7-3 5-5 2 3-5 8-10z" fill="#5A7986"/>
<path transform="translate(1375,580)" d="m0 0 1 3h-2l-2 5-4 5-4 3-5-1v-3l4 1 5-4 1-3 5-5z" fill="#EFBABE"/>
<path transform="translate(631,524)" d="m0 0h14l4 1v2h-18z" fill="#F3B3B9"/>
<path transform="translate(713,445)" d="m0 0 6 1 15 5 4 4-5-1-20-8z" fill="#D1B3B5"/>
<path transform="translate(921,1353)" d="m0 0 5 1 2 8 3 5v2h-2l-6-10z" fill="#ECE8E6"/>
<path transform="translate(1044,1159)" d="m0 0h6v1l-10 2h-4l-1 2-2 1-2-1-11-1v-1z" fill="#957D86"/>
<path transform="translate(841,1117)" d="m0 0 10 1 16 3v1h-13l-9-2z" fill="#79747F"/>
<path transform="translate(1501,1477)" d="m0 0 3 3 2 7-2 4v-3l-3-1-1-6z" fill="#E7DFDA"/>
<path transform="translate(1260,1458)" d="m0 0 2 2-2 9-1 2h-3v-6l3-6z" fill="#E2D7D2"/>
<path transform="translate(1391,551)" d="m0 0 1 4-2 1-2 8-5 1 2-6 4-7z" fill="#F2B5BA"/>
<path transform="translate(1286,548)" d="m0 0 6 2 13 6-4 1-11-4z" fill="#E2D7D2"/>
<path transform="translate(1201,358)" d="m0 0m-2 1h2l-2 4-6 5-7 5-2-1 9-8z" fill="#EAE7E5"/>
<path transform="translate(792,1692)" d="m0 0h7l5 3v2l-4 1-7-1z" fill="#E4DAD5"/>
<path transform="translate(893,814)" d="m0 0 2 2 1 10 2 6v11l-2-4-3-17z" fill="#E6DFDC"/>
<path transform="translate(1091,737)" d="m0 0 1 2-3 3-1 3-5 5-2 1-1-4 3-1 2-4z" fill="#E5DEDA"/>
<path transform="translate(1242,735)" d="m0 0 5 1 5 2h7l2 1-1 4-11-3-7-4z" fill="#D2CACA"/>
<path transform="translate(1399,527)" d="m0 0 1 2-7 16-3 7-3 3 2-7 7-15z" fill="#F391A0"/>
<path transform="translate(1450,391)" d="m0 0 3 1 1 11-2 4-2-5z" fill="#EAE7E5"/>
<path transform="translate(1086,1662)" d="m0 0 10 1 6 4v3l-6-2-9-4-2-1z" fill="#EBE8E6"/>
<path transform="translate(1257,1637)" d="m0 0 2 1-7 10-2 5-2-4 1-4 5-5h2z" fill="#E2D7D2"/>
<path transform="translate(873,974)" d="m0 0h18l-4 2-6 1h-16l-1-2z" fill="#E1D6D1"/>
<path transform="translate(1276,755)" d="m0 0 5 1 6 4 1 2-3 1h-10v-1l8-1-5-3-3-2z" fill="#32293F"/>
<path transform="translate(685,538)" d="m0 0 5 1v4l-1 2-5 1-4 1-1-2 6-3z" fill="#DDBCBD"/>
<path transform="translate(673,451)" d="m0 0 16 8 2 4-12-6-5-2z" fill="#F1B7BC"/>
<path transform="translate(1334,301)" d="m0 0 1 3-1 2-7 4-3 2h-3l1-3 11-7z" fill="#EAE3E0"/>
<path transform="translate(1345,294)" d="m0 0h4l-1 3-9 5h-3l2-4z" fill="#E9E2DE"/>
<path transform="translate(1132,1717)" d="m0 0h18l1 3h-11-1-5v-2z" fill="#E2D8D3"/>
<path transform="translate(1076,1367)" d="m0 0h1l-1 18-2 7-2-4 1-5z" fill="#FCFAF8"/>
<path transform="translate(1397,1325)" d="m0 0 5 5 9 10-1 2-7-6-6-8z" fill="#EAE7E5"/>
<path transform="translate(926,1223)" d="m0 0 1 2h2l6 11 3 5-5-2-6-12z" fill="#80737E"/>
<path transform="translate(957,1154)" d="m0 0 4 2 2 9v5l-2-3-2-8-3 4-2-1z" fill="#5E7582"/>
<path transform="translate(1430,792)" d="m0 0 8 2 7 5v2l-3 1-4-3v-2l-9-3z" fill="#ECE9E7"/>
<path transform="translate(701,439)" d="m0 0 8 1 14 6 1 2-11-3-12-5z" fill="#F2B4BA"/>
<path transform="translate(1223,1603)" d="m0 0 1 3 1 4v4l-2 1-3-1v-8z" fill="#F7F4F2"/>
<path transform="translate(899,1126)" d="m0 0h12l12 1v2h-14v-2h-10z" fill="#7E707C"/>
<path transform="translate(589,1041)" d="m0 0h3l-1 4-7 6v-2l-2-1z" fill="#9BA8AE"/>
<path transform="translate(1144,1136)" d="m0 0h5l-1 2-9 3-8 3-3-1 5-1v-2z" fill="#9B828A"/>
<path transform="translate(1018,988)" d="m0 0 3 1 1 4h2l2 3-1 4-2-3-2 1-4-7z" fill="#E6E0DD"/>
<path transform="translate(627,469)" d="m0 0 2 1-3 1 1 3 11 1v1h-16l-1-2 3-4z" fill="#FBA6B0"/>
<path transform="translate(913,934)" d="m0 0h5l1 2h-2l3 4-5 2-2-2z" fill="#C5B2B3"/>
<path transform="translate(711,810)" d="m0 0 2 4 1 5h2l3 8-4-1v-3l-3-1z" fill="#2D2338"/>
<path transform="translate(1376,573)" d="m0 0 1 2-5 10-3 1-1 4-4 2 2-4 2-3h2l2-5z" fill="#F493A2"/>
<path transform="translate(955,1183)" d="m0 0h7l3 5-6 1z" fill="#EAE7E5"/>
<path transform="translate(1167,767)" d="m0 0h3l6 8-5 1v-2l-2-1-3-5z" fill="#271D32"/>
<path transform="translate(1413,297)" d="m0 0h2l4 9 2 5-3 1-5-12z" fill="#E7DEDA"/>
<path transform="translate(1467,1544)" d="m0 0 4 4-1 3-4 1v-2h-2l1-4z" fill="#EAE7E5"/>
<path transform="translate(1394,575)" d="m0 0 1 3-7 14h-2l2-6z" fill="#FCFAF8"/>
<path transform="translate(1260,492)" d="m0 0 2 1-10 10-2-1 2-4z" fill="#DAB6B8"/>
<path transform="translate(632,281)" d="m0 0 6 2 14 8-3 1-11-6-6-4z" fill="#E7E5E4"/>
<path transform="translate(958,986)" d="m0 0 5 1 7 3v3l-7-2-5-3z" fill="#E6E0DD"/>
<path transform="translate(984,935)" d="m0 0 3 2 2-1 2 2-1 2-1 1 5 2-3 1-2-1-1 3-4-9z" fill="#BBA8AA"/>
<path transform="translate(844,816)" d="m0 0 1 3-7 9-4 2v-3h2l1-2z" fill="#2A2035"/>
<path transform="translate(545,812)" d="m0 0h9v1l-12 3h-8l4-2z" fill="#D0C0C1"/>
<path transform="translate(1339,582)" d="m0 0 3 2 3 3v2l4 2v2l-4-1-1-3-4-2z" fill="#EAE5E3"/>
<path transform="translate(553,278)" d="m0 0 12 2 1 2-13-1-4 1v-3z" fill="#E1D6D1"/>
<path transform="translate(1370,1473)" d="m0 0 2 1-5 4-12 4-3-1 3-2 10-3z" fill="#FCFAF8"/>
<path transform="translate(989,1427)" d="m0 0h2v5l-5 1-3-3v-2z" fill="#F3F1EF"/>
<path transform="translate(1011,1163)" d="m0 0h8v1l-15 2-4 2-1 3-1-2 2-4 2-1z" fill="#947C85"/>
<path transform="translate(1299,1155)" d="m0 0 5 1-1 7-5-2-1-4z" fill="#E7E1DE"/>
<path transform="translate(1418,511)" d="m0 0 2 3-3 9-3 10-1-4 4-17z" fill="#FCFAF8"/>
<path transform="translate(1231,1138)" d="m0 0 3 1-3 3-5 2h-4v-2z" fill="#E4DAD5"/>
<path transform="translate(667,437)" d="m0 0h6v1l-9 2 3 6-5-2v-2h-2v-2z" fill="#FCFAF8"/>
<path transform="translate(1199,862)" d="m0 0 1 3-8 4-9 2 4-3 9-4z" fill="#5A7482"/>
<path transform="translate(997,760)" d="m0 0h5l1 2-9 2-4 2-3-1z" fill="#FCFAF8"/>
<path transform="translate(988,738)" d="m0 0 8 3v2l-6 1-3-3z" fill="#EAE7E5"/>
<path transform="translate(678,484)" d="m0 0 7 3 4 3v2l-5-2-9-4z" fill="#F3B2B9"/>
<path transform="translate(1111,812)" d="m0 0 2 1v3h2l2 5v3h2v2l-3-1-5-9z" fill="#2B2237"/>
<path transform="translate(667,756)" d="m0 0v3l-9 3 1 2h-5v-3z" fill="#C5B2B3"/>
<path transform="translate(1142,643)" d="m0 0 5 3-1 3-5 1-1-5z" fill="#EBE8E6"/>
<path transform="translate(639,514)" d="m0 0 4 1-4 2-4 1-7 1v-2l4-2z" fill="#E5AAB1"/>
<path transform="translate(1293,1656)" d="m0 0 3 1 1 5-5-1-3 2 1-5z" fill="#E9E5E3"/>
<path transform="translate(1119,1336)" d="m0 0h1v6l-5 8h-2l3-9 2-3z" fill="#EAE7E5"/>
<path transform="translate(991,1260)" d="m0 0h6l-4 4-6 3v-4z" fill="#60606F"/>
<path transform="translate(898,1123)" d="m0 0m-5 0 6 2v1h-9l-9-1v-1z" fill="#987F88"/>
<path transform="translate(744,858)" d="m0 0 7 3 2 1v2l-4 1-1-3-5-2z" fill="#291F34"/>
<path transform="translate(723,846)" d="m0 0h2l7 8 5 5-4-1-9-9z" fill="#A5949A"/>
<path transform="translate(1254,776)" d="m0 0 4 2-3 3-2 1-1 5h-1v-9z" fill="#EAE6E3"/>
<path transform="translate(667,480)" d="m0 0 5 1 6 3v1l-8-1-6-2z" fill="#F2B4BA"/>
<path transform="translate(686,440)" d="m0 0 6 1 7 2v3l-11-3-2-1z" fill="#EBE8E6"/>
<path transform="translate(759,1733)" d="m0 0 4 2 2 3h-9z" fill="#342C41"/>
<path transform="translate(1293,1692)" d="m0 0 2 2-4 3h-3v2h-8l3-2 8-3z" fill="#E1D7D2"/>
<path transform="translate(855,1147)" d="m0 0h9l5 2v2l-6-1-8-2z" fill="#998089"/>
<path transform="translate(1398,1073)" d="m0 0 5 2v2l5 4 1 3h-3l-8-10z" fill="#A1BEC4"/>
<path transform="translate(948,967)" d="m0 0 2 1-3 5-5 4-2-1 5-7z" fill="#9A8089"/>
<path transform="translate(995,957)" d="m0 0 7 6 2 2-3 1-7-6z" fill="#3F3A4D"/>
<path transform="translate(885,946)" d="m0 0 10 2v2h-9z" fill="#C5B2B3"/>
<path transform="translate(992,878)" d="m0 0 12 1 4 2-1 3-3-1 1-1-2-1-10-1-1 3-1-4z" fill="#E67E90"/>
<path transform="translate(1399,668)" d="m0 0h2l3 9-1 3-4-5z" fill="#EAE7E5"/>
<path transform="translate(1288,527)" d="m0 0 3 1-3 1zm-1 2 1 3-9 5-2-1 8-6z" fill="#EAB9BD"/>
<path transform="translate(1298,1686)" d="m0 0 4 1 3 4v2h-2l-3-4-5 2z" fill="#E2D7D2"/>
<path transform="translate(865,947)" d="m0 0h6v3l-4 2h-3z" fill="#BEAAAC"/>
<path transform="translate(1117,856)" d="m0 0 1 2 4 1 5 4v2l-5-2-5-4z" fill="#81B5BF"/>
<path transform="translate(1107,804)" d="m0 0 3 1 2 4-1 6-3-4z" fill="#3E4254"/>
<path transform="translate(706,733)" d="m0 0m-1 1v3l-3 3-5 2 3-5z" fill="#AD9BA0"/>
<path transform="translate(651,558)" d="m0 0h2l-1 3-7 4h-5l4-3z" fill="#E1B8BB"/>
<path transform="translate(807,537)" d="m0 0 2 4 2 3v4l-4-2-1-4z" fill="#EAE7E5"/>
<path transform="translate(1257,461)" d="m0 0 2 1-7 8-5 3 2-4 5-5z" fill="#D4B5B7"/>
<path transform="translate(1381,289)" d="m0 0 7 1 3 2h-16l1-2z" fill="#F9A8B1"/>
<path transform="translate(529,253)" d="m0 0 3 1-4 2-1 6-3-1 2-6z" fill="#F5F2F0"/>
<path transform="translate(1235,1730)" d="m0 0 1 3-3 4 2 2-7 1 5-8z" fill="#9D858D"/>
<path transform="translate(1244,1663)" d="m0 0 3 4 1 6h-2v-2h-2l-2-7z" fill="#cbb"/>
<path transform="translate(1462,1550)" d="m0 0 2 3v4l-7-1z" fill="#EAE7E5"/>
<path transform="translate(947,1252)" d="m0 0 7 6 3 4h-3v-2l-4-2-3-3z" fill="#6F727E"/>
<path transform="translate(1247,1130)" d="m0 0m-2 1h2v3l-7 3h-3l1-2z" fill="#E2D7D2"/>
<path transform="translate(926,981)" d="m0 0 6 1-3 3-6 1 1-4z" fill="#A2878E"/>
<path transform="translate(955,973)" d="m0 0h2l-1 8 2 5-5-5-1-4 3-1z" fill="#E3D9D5"/>
<path transform="translate(1098,643)" d="m0 0h4l1 3h-2l-1 5-5-1 3-2z" fill="#EAE7E5"/>
<path transform="translate(1418,601)" d="m0 0 1 4-3 6-2-1 1-4z" fill="#CDBDBD"/>
<path transform="translate(649,525)" d="m0 0 10 1 2 1v2l-10-1-2-1z" fill="#F0B8BD"/>
<path transform="translate(1336,525)" d="m0 0 4 2v3l-9-1 3-2h2z" fill="#FBA6B0"/>
<path transform="translate(1191,453)" d="m0 0 4 5v2l2 1h-6l-1-6z" fill="#EAE7E5"/>
<path transform="translate(759,450)" d="m0 0h2v3l3-1-1 4-4 1-1-1v-5z" fill="#E1D6D1"/>
<path transform="translate(750,433)" d="m0 0 4 1 4 7v2l-3-1-3-5v-3z" fill="#E2D7D3"/>
</svg>
